<?xml version="1.0" standalone="yes"?>

<svg version="1.1" viewBox="0.0 0.0 948.3595800524935 861.7165354330708" fill="none" stroke="none" stroke-linecap="square" stroke-miterlimit="10" xmlns="http://www.w3.org/2000/svg" xmlns:xlink="http://www.w3.org/1999/xlink"><clipPath id="p.0"><path d="m0 0l948.35956 0l0 861.71655l-948.35956 0l0 -861.71655z" clip-rule="nonzero"></path></clipPath><g clip-path="url(#p.0)"><path fill="#000000" fill-opacity="0.0" d="m0 0l948.35956 0l0 861.71655l-948.35956 0z" fill-rule="nonzero"></path><path fill="#000000" fill-opacity="0.0" d="m471.56955 25.228346l0 0c0 -12.071987 9.786285 -21.858267 21.858276 -21.858267l0 0c5.79718 0 11.356903 2.3029182 15.456116 6.4021378c4.0992126 4.0992203 6.40213 9.658957 6.40213 15.456129l0 0c0 12.071989 -9.786255 21.858267 -21.858246 21.858267l0 0c-12.071991 0 -21.858276 -9.786278 -21.858276 -21.858267z" fill-rule="nonzero"></path><path stroke="#000000" stroke-width="2.0" stroke-linejoin="round" stroke-linecap="butt" d="m471.56955 25.228346l0 0c0 -12.071987 9.786285 -21.858267 21.858276 -21.858267l0 0c5.79718 0 11.356903 2.3029182 15.456116 6.4021378c4.0992126 4.0992203 6.40213 9.658957 6.40213 15.456129l0 0c0 12.071989 -9.786255 21.858267 -21.858246 21.858267l0 0c-12.071991 0 -21.858276 -9.786278 -21.858276 -21.858267z" fill-rule="nonzero"></path><path fill="#000000" d="m494.0498 32.148346l-1.671875 0l0 -10.640627q-0.59375 0.578125 -1.578125 1.15625q-0.984375 0.5625 -1.765625 0.859375l0 -1.625q1.40625 -0.65625 2.453125 -1.59375q1.046875 -0.9375 1.484375 -1.8125l1.078125 0l0 13.656252z" fill-rule="nonzero"></path><path fill="#000000" fill-opacity="0.0" d="m575.26843 25.228346l0 0c0 -12.071987 9.786316 -21.858267 21.858276 -21.858267l0 0c5.79718 0 11.356934 2.3029182 15.456116 6.4021378c4.099243 4.0992203 6.4021606 9.658957 6.4021606 15.456129l0 0c0 12.071989 -9.786255 21.858267 -21.858276 21.858267l0 0c-12.07196 0 -21.858276 -9.786278 -21.858276 -21.858267z" fill-rule="nonzero"></path><path stroke="#000000" stroke-width="2.0" stroke-linejoin="round" stroke-linecap="butt" d="m575.26843 25.228346l0 0c0 -12.071987 9.786316 -21.858267 21.858276 -21.858267l0 0c5.79718 0 11.356934 2.3029182 15.456116 6.4021378c4.099243 4.0992203 6.4021606 9.658957 6.4021606 15.456129l0 0c0 12.071989 -9.786255 21.858267 -21.858276 21.858267l0 0c-12.07196 0 -21.858276 -9.786278 -21.858276 -21.858267z" fill-rule="nonzero"></path><path fill="#000000" d="m600.2331 30.538969l0 1.6093769l-8.984375 0q-0.015625 -0.6093769 0.1875 -1.1562519q0.34375 -0.921875 1.09375 -1.8125q0.765625 -0.890625 2.1875 -2.0625q2.21875 -1.8125 3.0 -2.875q0.78125 -1.0625 0.78125 -2.015625q0 -0.984375 -0.71875 -1.671875q-0.703125 -0.6875 -1.84375 -0.6875q-1.203125 0 -1.9375 0.734375q-0.71875 0.71875 -0.71875 2.0l-1.71875 -0.171875q0.171875 -1.921875 1.328125 -2.921875q1.15625 -1.015625 3.09375 -1.015625q1.953125 0 3.09375 1.09375q1.140625 1.078125 1.140625 2.6875q0 0.8125 -0.34375 1.609375q-0.328125 0.78125 -1.109375 1.65625q-0.765625 0.859375 -2.5625 2.390625q-1.5 1.265625 -1.9375 1.71875q-0.421875 0.4375 -0.703125 0.890625l6.671875 0z" fill-rule="nonzero"></path><path fill="#000000" fill-opacity="0.0" d="m674.1181 25.228346l0 0c0 -12.071987 9.786316 -21.858267 21.858276 -21.858267l0 0c5.79718 0 11.356934 2.3029182 15.456116 6.4021378c4.099243 4.0992203 6.4021606 9.658957 6.4021606 15.456129l0 0c0 12.071989 -9.786316 21.858267 -21.858276 21.858267l0 0c-12.07196 0 -21.858276 -9.786278 -21.858276 -21.858267z" fill-rule="nonzero"></path><path stroke="#000000" stroke-width="2.0" stroke-linejoin="round" stroke-linecap="butt" d="m674.1181 25.228346l0 0c0 -12.071987 9.786316 -21.858267 21.858276 -21.858267l0 0c5.79718 0 11.356934 2.3029182 15.456116 6.4021378c4.099243 4.0992203 6.4021606 9.658957 6.4021606 15.456129l0 0c0 12.071989 -9.786316 21.858267 -21.858276 21.858267l0 0c-12.07196 0 -21.858276 -9.786278 -21.858276 -21.858267z" fill-rule="nonzero"></path><path fill="#000000" d="m690.31714 28.554594l1.671875 -0.21875q0.28125 1.421875 0.96875 2.046875q0.703125 0.625 1.6875 0.625q1.1875 0 2.0 -0.8125q0.8125 -0.828125 0.8125 -2.03125q0 -1.140625 -0.765625 -1.890625q-0.75 -0.75 -1.90625 -0.75q-0.46875 0 -1.171875 0.1875l0.1875 -1.46875q0.15625 0.015625 0.265625 0.015625q1.0625 0 1.90625 -0.546875q0.859375 -0.5625 0.859375 -1.71875q0 -0.921875 -0.625 -1.515625q-0.609375 -0.609375 -1.59375 -0.609375q-0.96875 0 -1.625 0.609375q-0.640625 0.609375 -0.828125 1.84375l-1.671875 -0.296875q0.296875 -1.6875 1.375 -2.609375q1.09375 -0.921875 2.71875 -0.921875q1.109375 0 2.046875 0.484375q0.9375 0.46875 1.421875 1.296875q0.5 0.828125 0.5 1.75q0 0.890625 -0.46875 1.609375q-0.46875 0.71875 -1.40625 1.15625q1.21875 0.265625 1.875 1.15625q0.671875 0.875 0.671875 2.1875q0 1.78125 -1.296875 3.015625q-1.296875 1.2343769 -3.28125 1.2343769q-1.796875 0 -2.984375 -1.0625019q-1.171875 -1.0625 -1.34375 -2.765625z" fill-rule="nonzero"></path><path fill="#000000" fill-opacity="0.0" d="m471.2711 106.68241l0 0c0 -12.071983 9.786285 -21.858261 21.858246 -21.858261l0 0c5.79718 0 11.356934 2.3029175 15.456146 6.4021378c4.0992126 4.0992203 6.40213 9.658951 6.40213 15.456123l0 0c0 12.071991 -9.786285 21.858269 -21.858276 21.858269l0 0c-12.07196 0 -21.858246 -9.786278 -21.858246 -21.858269z" fill-rule="nonzero"></path><path stroke="#000000" stroke-width="2.0" stroke-linejoin="round" stroke-linecap="butt" d="m471.2711 106.68241l0 0c0 -12.071983 9.786285 -21.858261 21.858246 -21.858261l0 0c5.79718 0 11.356934 2.3029175 15.456146 6.4021378c4.0992126 4.0992203 6.40213 9.658951 6.40213 15.456123l0 0c0 12.071991 -9.786285 21.858269 -21.858276 21.858269l0 0c-12.07196 0 -21.858246 -9.786278 -21.858246 -21.858269z" fill-rule="nonzero"></path><path fill="#000000" d="m492.81384 113.60241l0 -3.25l-5.90625 0l0 -1.53125l6.21875 -8.8125l1.359375 0l0 8.8125l1.84375 0l0 1.53125l-1.84375 0l0 3.25l-1.671875 0zm0 -4.78125l0 -6.140625l-4.25 6.140625l4.25 0z" fill-rule="nonzero"></path><path fill="#000000" fill-opacity="0.0" d="m575.7546 106.68241l0 0c0 -12.071983 9.786316 -21.858261 21.858276 -21.858261l0 0c5.79718 0 11.356934 2.3029175 15.456116 6.4021378c4.099243 4.0992203 6.4021606 9.658951 6.4021606 15.456123l0 0c0 12.071991 -9.786255 21.858269 -21.858276 21.858269l0 0c-12.07196 0 -21.858276 -9.786278 -21.858276 -21.858269z" fill-rule="nonzero"></path><path stroke="#000000" stroke-width="2.0" stroke-linejoin="round" stroke-linecap="butt" d="m575.7546 106.68241l0 0c0 -12.071983 9.786316 -21.858261 21.858276 -21.858261l0 0c5.79718 0 11.356934 2.3029175 15.456116 6.4021378c4.099243 4.0992203 6.4021606 9.658951 6.4021606 15.456123l0 0c0 12.071991 -9.786255 21.858269 -21.858276 21.858269l0 0c-12.07196 0 -21.858276 -9.786278 -21.858276 -21.858269z" fill-rule="nonzero"></path><path fill="#000000" d="m591.938 110.03991l1.765625 -0.15625q0.1875 1.28125 0.890625 1.9375q0.71875 0.640625 1.71875 0.640625q1.203125 0 2.03125 -0.90625q0.84375 -0.90625 0.84375 -2.421875q0 -1.421875 -0.8125 -2.25q-0.796875 -0.828125 -2.09375 -0.828125q-0.796875 0 -1.453125 0.375q-0.640625 0.359375 -1.015625 0.953125l-1.578125 -0.203125l1.328125 -7.0l6.765625 0l0 1.609375l-5.4375 0l-0.734375 3.640625q1.234375 -0.84375 2.578125 -0.84375q1.78125 0 3.0 1.234375q1.234375 1.234375 1.234375 3.171875q0 1.84375 -1.078125 3.1875q-1.3125 1.65625 -3.578125 1.65625q-1.859375 0 -3.03125 -1.03125q-1.171875 -1.046875 -1.34375 -2.765625z" fill-rule="nonzero"></path><path fill="#000000" fill-opacity="0.0" d="m674.1181 106.68241l0 0c0 -12.071983 9.786316 -21.858261 21.858276 -21.858261l0 0c5.79718 0 11.356934 2.3029175 15.456116 6.4021378c4.099243 4.0992203 6.4021606 9.658951 6.4021606 15.456123l0 0c0 12.071991 -9.786316 21.858269 -21.858276 21.858269l0 0c-12.07196 0 -21.858276 -9.786278 -21.858276 -21.858269z" fill-rule="nonzero"></path><path stroke="#000000" stroke-width="2.0" stroke-linejoin="round" stroke-linecap="butt" d="m674.1181 106.68241l0 0c0 -12.071983 9.786316 -21.858261 21.858276 -21.858261l0 0c5.79718 0 11.356934 2.3029175 15.456116 6.4021378c4.099243 4.0992203 6.4021606 9.658951 6.4021606 15.456123l0 0c0 12.071991 -9.786316 21.858269 -21.858276 21.858269l0 0c-12.07196 0 -21.858276 -9.786278 -21.858276 -21.858269z" fill-rule="nonzero"></path><path fill="#000000" d="m698.9734 103.336784l-1.65625 0.125q-0.21875 -0.984375 -0.640625 -1.421875q-0.671875 -0.71875 -1.65625 -0.71875q-0.8125 0 -1.40625 0.4375q-0.796875 0.578125 -1.25 1.6875q-0.453125 1.09375 -0.46875 3.140625q0.609375 -0.921875 1.46875 -1.359375q0.875 -0.453125 1.828125 -0.453125q1.671875 0 2.84375 1.234375q1.171875 1.234375 1.171875 3.171875q0 1.28125 -0.546875 2.390625q-0.546875 1.09375 -1.515625 1.6875q-0.96875 0.578125 -2.1875 0.578125q-2.09375 0 -3.40625 -1.53125q-1.3125 -1.546875 -1.3125 -5.0625q0 -3.953125 1.453125 -5.734375q1.265625 -1.5625 3.421875 -1.5625q1.609375 0 2.625 0.90625q1.03125 0.890625 1.234375 2.484375zm-6.8125 5.859375q0 0.859375 0.359375 1.65625q0.375 0.78125 1.03125 1.203125q0.65625 0.40625 1.375 0.40625q1.0625 0 1.8125 -0.84375q0.765625 -0.859375 0.765625 -2.328125q0 -1.40625 -0.75 -2.21875q-0.75 -0.8125 -1.890625 -0.8125q-1.125 0 -1.921875 0.8125q-0.78125 0.8125 -0.78125 2.125z" fill-rule="nonzero"></path><path fill="#000000" fill-opacity="0.0" d="m28.274279 280.85434l0 0c0 -12.071991 9.78628 -21.858276 21.858267 -21.858276l0 0c5.7971725 0 11.356911 2.3029175 15.456131 6.40213c4.0992203 4.099243 6.4021378 9.658966 6.4021378 15.456146l0 0c0 12.071991 -9.786282 21.858246 -21.858269 21.858246l0 0c-12.071987 0 -21.858267 -9.786255 -21.858267 -21.858246z" fill-rule="nonzero"></path><path stroke="#000000" stroke-width="2.0" stroke-linejoin="round" stroke-linecap="butt" d="m28.274279 280.85434l0 0c0 -12.071991 9.78628 -21.858276 21.858267 -21.858276l0 0c5.7971725 0 11.356911 2.3029175 15.456131 6.40213c4.0992203 4.099243 6.4021378 9.658966 6.4021378 15.456146l0 0c0 12.071991 -9.786282 21.858246 -21.858269 21.858246l0 0c-12.071987 0 -21.858267 -9.786255 -21.858267 -21.858246z" fill-rule="nonzero"></path><path fill="#000000" d="m50.754543 287.77432l-1.671875 0l0 -10.640625q-0.59375 0.578125 -1.578125 1.15625q-0.984375 0.5625 -1.765625 0.859375l0 -1.625q1.40625 -0.65625 2.453125 -1.59375q1.046875 -0.9375 1.484375 -1.8125l1.078125 0l0 13.65625z" fill-rule="nonzero"></path><path fill="#000000" fill-opacity="0.0" d="m116.1168 280.85434l0 0c0 -12.071991 9.786278 -21.858276 21.858269 -21.858276l0 0c5.797165 0 11.356903 2.3029175 15.456131 6.40213c4.0992126 4.099243 6.40213 9.658966 6.40213 15.456146l0 0c0 12.071991 -9.78627 21.858246 -21.858261 21.858246l0 0c-12.071991 0 -21.858269 -9.786255 -21.858269 -21.858246z" fill-rule="nonzero"></path><path stroke="#000000" stroke-width="2.0" stroke-linejoin="round" stroke-linecap="butt" d="m116.1168 280.85434l0 0c0 -12.071991 9.786278 -21.858276 21.858269 -21.858276l0 0c5.797165 0 11.356903 2.3029175 15.456131 6.40213c4.0992126 4.099243 6.40213 9.658966 6.40213 15.456146l0 0c0 12.071991 -9.78627 21.858246 -21.858261 21.858246l0 0c-12.071991 0 -21.858269 -9.786255 -21.858269 -21.858246z" fill-rule="nonzero"></path><path fill="#000000" d="m141.08144 286.16495l0 1.609375l-8.984375 0q-0.015625 -0.609375 0.1875 -1.15625q0.34375 -0.921875 1.09375 -1.8125q0.765625 -0.890625 2.1875 -2.0625q2.21875 -1.8125 3.0 -2.875q0.78125 -1.0625 0.78125 -2.015625q0 -0.984375 -0.71875 -1.671875q-0.703125 -0.6875 -1.84375 -0.6875q-1.203125 0 -1.9375 0.734375q-0.71875 0.71875 -0.71875 2.0l-1.71875 -0.171875q0.171875 -1.921875 1.328125 -2.921875q1.15625 -1.015625 3.09375 -1.015625q1.953125 0 3.09375 1.09375q1.140625 1.078125 1.140625 2.6875q0 0.8125 -0.34375 1.609375q-0.328125 0.78125 -1.109375 1.65625q-0.765625 0.859375 -2.5625 2.390625q-1.5 1.265625 -1.9375 1.71875q-0.421875 0.4375 -0.703125 0.890625l6.671875 0z" fill-rule="nonzero"></path><path fill="#000000" fill-opacity="0.0" d="m203.96194 369.60236l0 0c0 -12.071991 9.78627 -21.858276 21.858261 -21.858276l0 0c5.79718 0 11.356918 2.302948 15.456131 6.4021606c4.099228 4.0992126 6.4021454 9.658936 6.4021454 15.456116l0 0c0 12.071991 -9.786285 21.858276 -21.858276 21.858276l0 0c-12.071991 0 -21.858261 -9.786285 -21.858261 -21.858276z" fill-rule="nonzero"></path><path stroke="#000000" stroke-width="2.0" stroke-linejoin="round" stroke-linecap="butt" d="m203.96194 369.60236l0 0c0 -12.071991 9.78627 -21.858276 21.858261 -21.858276l0 0c5.79718 0 11.356918 2.302948 15.456131 6.4021606c4.099228 4.0992126 6.4021454 9.658936 6.4021454 15.456116l0 0c0 12.071991 -9.786285 21.858276 -21.858276 21.858276l0 0c-12.071991 0 -21.858261 -9.786285 -21.858261 -21.858276z" fill-rule="nonzero"></path><path fill="#000000" d="m220.16095 372.92862l1.671875 -0.21875q0.28125 1.421875 0.96875 2.046875q0.703125 0.625 1.6875 0.625q1.1875 0 2.0 -0.8125q0.8125 -0.828125 0.8125 -2.03125q0 -1.140625 -0.765625 -1.890625q-0.75 -0.75 -1.90625 -0.75q-0.46875 0 -1.171875 0.1875l0.1875 -1.46875q0.15625 0.015625 0.265625 0.015625q1.0625 0 1.90625 -0.546875q0.859375 -0.5625 0.859375 -1.71875q0 -0.921875 -0.625 -1.515625q-0.609375 -0.609375 -1.59375 -0.609375q-0.96875 0 -1.625 0.609375q-0.640625 0.609375 -0.828125 1.84375l-1.671875 -0.296875q0.296875 -1.6875 1.375 -2.609375q1.09375 -0.921875 2.71875 -0.921875q1.109375 0 2.046875 0.484375q0.9375 0.46875 1.421875 1.296875q0.5 0.828125 0.5 1.75q0 0.890625 -0.46875 1.609375q-0.46875 0.71875 -1.40625 1.15625q1.21875 0.265625 1.875 1.15625q0.671875 0.875 0.671875 2.1875q0 1.78125 -1.296875 3.015625q-1.296875 1.234375 -3.28125 1.234375q-1.796875 0 -2.984375 -1.0625q-1.171875 -1.0625 -1.34375 -2.765625z" fill-rule="nonzero"></path><path fill="#000000" fill-opacity="0.0" d="m116.11811 369.60236l0 0c0 -12.071991 9.786278 -21.858276 21.858269 -21.858276l0 0c5.797165 0 11.356903 2.302948 15.456131 6.4021606c4.0992126 4.0992126 6.40213 9.658936 6.40213 15.456116l0 0c0 12.071991 -9.78627 21.858276 -21.858261 21.858276l0 0c-12.071991 0 -21.858269 -9.786285 -21.858269 -21.858276z" fill-rule="nonzero"></path><path stroke="#000000" stroke-width="2.0" stroke-linejoin="round" stroke-linecap="butt" d="m116.11811 369.60236l0 0c0 -12.071991 9.786278 -21.858276 21.858269 -21.858276l0 0c5.797165 0 11.356903 2.302948 15.456131 6.4021606c4.0992126 4.0992126 6.40213 9.658936 6.40213 15.456116l0 0c0 12.071991 -9.78627 21.858276 -21.858261 21.858276l0 0c-12.071991 0 -21.858269 -9.786285 -21.858269 -21.858276z" fill-rule="nonzero"></path><path fill="#000000" d="m137.66087 376.52237l0 -3.25l-5.90625 0l0 -1.53125l6.21875 -8.8125l1.359375 0l0 8.8125l1.84375 0l0 1.53125l-1.84375 0l0 3.25l-1.671875 0zm0 -4.78125l0 -6.140625l-4.25 6.140625l4.25 0z" fill-rule="nonzero"></path><path fill="#000000" fill-opacity="0.0" d="m203.96194 280.85434l0 0c0 -12.071991 9.78627 -21.858276 21.858261 -21.858276l0 0c5.79718 0 11.356918 2.3029175 15.456131 6.40213c4.099228 4.099243 6.4021454 9.658966 6.4021454 15.456146l0 0c0 12.071991 -9.786285 21.858246 -21.858276 21.858246l0 0c-12.071991 0 -21.858261 -9.786255 -21.858261 -21.858246z" fill-rule="nonzero"></path><path stroke="#000000" stroke-width="2.0" stroke-linejoin="round" stroke-linecap="butt" d="m203.96194 280.85434l0 0c0 -12.071991 9.78627 -21.858276 21.858261 -21.858276l0 0c5.79718 0 11.356918 2.3029175 15.456131 6.40213c4.099228 4.099243 6.4021454 9.658966 6.4021454 15.456146l0 0c0 12.071991 -9.786285 21.858246 -21.858276 21.858246l0 0c-12.071991 0 -21.858261 -9.786255 -21.858261 -21.858246z" fill-rule="nonzero"></path><path fill="#000000" d="m220.14532 284.21182l1.765625 -0.15625q0.1875 1.28125 0.890625 1.9375q0.71875 0.640625 1.71875 0.640625q1.203125 0 2.03125 -0.90625q0.84375 -0.90625 0.84375 -2.421875q0 -1.421875 -0.8125 -2.25q-0.796875 -0.828125 -2.09375 -0.828125q-0.796875 0 -1.453125 0.375q-0.640625 0.359375 -1.015625 0.953125l-1.578125 -0.203125l1.328125 -7.0l6.765625 0l0 1.609375l-5.4375 0l-0.734375 3.640625q1.234375 -0.84375 2.578125 -0.84375q1.78125 0 3.0 1.234375q1.234375 1.234375 1.234375 3.171875q0 1.84375 -1.078125 3.1875q-1.3125 1.65625 -3.578125 1.65625q-1.859375 0 -3.03125 -1.03125q-1.171875 -1.046875 -1.34375 -2.765625z" fill-rule="nonzero"></path><path fill="#000000" fill-opacity="0.0" d="m28.274279 369.60236l0 0c0 -12.071991 9.78628 -21.858276 21.858267 -21.858276l0 0c5.7971725 0 11.356911 2.302948 15.456131 6.4021606c4.0992203 4.0992126 6.4021378 9.658936 6.4021378 15.456116l0 0c0 12.071991 -9.786282 21.858276 -21.858269 21.858276l0 0c-12.071987 0 -21.858267 -9.786285 -21.858267 -21.858276z" fill-rule="nonzero"></path><path stroke="#000000" stroke-width="2.0" stroke-linejoin="round" stroke-linecap="butt" d="m28.274279 369.60236l0 0c0 -12.071991 9.78628 -21.858276 21.858267 -21.858276l0 0c5.7971725 0 11.356911 2.302948 15.456131 6.4021606c4.0992203 4.0992126 6.4021378 9.658936 6.4021378 15.456116l0 0c0 12.071991 -9.786282 21.858276 -21.858269 21.858276l0 0c-12.071987 0 -21.858267 -9.786285 -21.858267 -21.858276z" fill-rule="nonzero"></path><path fill="#000000" d="m53.129543 366.25674l-1.65625 0.125q-0.21875 -0.984375 -0.640625 -1.421875q-0.671875 -0.71875 -1.65625 -0.71875q-0.8125 0 -1.40625 0.4375q-0.796875 0.578125 -1.25 1.6875q-0.453125 1.09375 -0.46875 3.140625q0.609375 -0.921875 1.46875 -1.359375q0.875 -0.453125 1.828125 -0.453125q1.671875 0 2.84375 1.234375q1.171875 1.234375 1.171875 3.171875q0 1.28125 -0.546875 2.390625q-0.546875 1.09375 -1.515625 1.6875q-0.96875 0.578125 -2.1875 0.578125q-2.09375 0 -3.40625 -1.53125q-1.3125 -1.546875 -1.3125 -5.0625q0 -3.953125 1.453125 -5.734375q1.265625 -1.5625 3.421875 -1.5625q1.609375 0 2.625 0.90625q1.03125 0.890625 1.234375 2.484375zm-6.8125 5.859375q0 0.859375 0.359375 1.65625q0.375 0.78125 1.03125 1.203125q0.65625 0.40625 1.375 0.40625q1.0625 0 1.8125 -0.84375q0.765625 -0.859375 0.765625 -2.328125q0 -1.40625 -0.75 -2.21875q-0.75 -0.8125 -1.890625 -0.8125q-1.125 0 -1.921875 0.8125q-0.78125 0.8125 -0.78125 2.125z" fill-rule="nonzero"></path><path fill="#000000" fill-opacity="0.0" d="m20.35433 725.6116l0 0c0 -12.0720215 9.78628 -21.858276 21.858267 -21.858276l0 0c5.7971764 0 11.356911 2.3029175 15.456131 6.4020996c4.0992203 4.099243 6.4021416 9.658997 6.4021416 15.456177l0 0c0 12.07196 -9.786282 21.858215 -21.858273 21.858215l0 0c-12.071987 0 -21.858267 -9.786255 -21.858267 -21.858215z" fill-rule="nonzero"></path><path stroke="#000000" stroke-width="2.0" stroke-linejoin="round" stroke-linecap="butt" d="m20.35433 725.6116l0 0c0 -12.0720215 9.78628 -21.858276 21.858267 -21.858276l0 0c5.7971764 0 11.356911 2.3029175 15.456131 6.4020996c4.0992203 4.099243 6.4021416 9.658997 6.4021416 15.456177l0 0c0 12.07196 -9.786282 21.858215 -21.858273 21.858215l0 0c-12.071987 0 -21.858267 -9.786255 -21.858267 -21.858215z" fill-rule="nonzero"></path><path fill="#000000" d="m42.834595 732.53156l-1.671875 0l0 -10.640625q-0.59375 0.578125 -1.578125 1.15625q-0.984375 0.5625 -1.765625 0.859375l0 -1.625q1.40625 -0.65625 2.453125 -1.59375q1.046875 -0.9375 1.484375 -1.8125l1.078125 0l0 13.65625z" fill-rule="nonzero"></path><path fill="#000000" fill-opacity="0.0" d="m412.33597 725.6116l0 0c0 -12.0720215 9.786255 -21.858276 21.858246 -21.858276l0 0c5.79718 0 11.356934 2.3029175 15.456146 6.4020996c4.0992126 4.099243 6.40213 9.658997 6.40213 15.456177l0 0c0 12.07196 -9.786285 21.858215 -21.858276 21.858215l0 0c-12.071991 0 -21.858246 -9.786255 -21.858246 -21.858215z" fill-rule="nonzero"></path><path stroke="#000000" stroke-width="2.0" stroke-linejoin="round" stroke-linecap="butt" d="m412.33597 725.6116l0 0c0 -12.0720215 9.786255 -21.858276 21.858246 -21.858276l0 0c5.79718 0 11.356934 2.3029175 15.456146 6.4020996c4.0992126 4.099243 6.40213 9.658997 6.40213 15.456177l0 0c0 12.07196 -9.786285 21.858215 -21.858276 21.858215l0 0c-12.071991 0 -21.858246 -9.786255 -21.858246 -21.858215z" fill-rule="nonzero"></path><path fill="#000000" d="m437.3006 730.9222l0 1.609375l-8.984375 0q-0.015625 -0.609375 0.1875 -1.15625q0.34375 -0.921875 1.09375 -1.8125q0.765625 -0.890625 2.1875 -2.0625q2.21875 -1.8125 3.0 -2.875q0.78125 -1.0625 0.78125 -2.015625q0 -0.984375 -0.71875 -1.671875q-0.703125 -0.6875 -1.84375 -0.6875q-1.203125 0 -1.9375 0.734375q-0.71875 0.71875 -0.71875 2.0l-1.71875 -0.171875q0.171875 -1.921875 1.328125 -2.921875q1.15625 -1.015625 3.09375 -1.015625q1.953125 0 3.09375 1.09375q1.140625 1.078125 1.140625 2.6875q0 0.8125 -0.34375 1.609375q-0.328125 0.78125 -1.109375 1.65625q-0.765625 0.859375 -2.5625 2.390625q-1.5 1.265625 -1.9375 1.71875q-0.421875 0.4375 -0.703125 0.890625l6.671875 0z" fill-rule="nonzero"></path><path fill="#000000" fill-opacity="0.0" d="m255.5433 725.6116l0 0c0 -12.0720215 9.786285 -21.858276 21.858276 -21.858276l0 0c5.79718 0 11.356903 2.3029175 15.456116 6.4020996c4.099243 4.099243 6.4021606 9.658997 6.4021606 15.456177l0 0c0 12.07196 -9.786285 21.858215 -21.858276 21.858215l0 0c-12.071991 0 -21.858276 -9.786255 -21.858276 -21.858215z" fill-rule="nonzero"></path><path stroke="#000000" stroke-width="2.0" stroke-linejoin="round" stroke-linecap="butt" d="m255.5433 725.6116l0 0c0 -12.0720215 9.786285 -21.858276 21.858276 -21.858276l0 0c5.79718 0 11.356903 2.3029175 15.456116 6.4020996c4.099243 4.099243 6.4021606 9.658997 6.4021606 15.456177l0 0c0 12.07196 -9.786285 21.858215 -21.858276 21.858215l0 0c-12.071991 0 -21.858276 -9.786255 -21.858276 -21.858215z" fill-rule="nonzero"></path><path fill="#000000" d="m271.7423 728.9378l1.671875 -0.21875q0.28125 1.421875 0.96875 2.046875q0.703125 0.625 1.6875 0.625q1.1875 0 2.0 -0.8125q0.8125 -0.828125 0.8125 -2.03125q0 -1.140625 -0.765625 -1.890625q-0.75 -0.75 -1.90625 -0.75q-0.46875 0 -1.171875 0.1875l0.1875 -1.46875q0.15625 0.015625 0.265625 0.015625q1.0625 0 1.90625 -0.546875q0.859375 -0.5625 0.859375 -1.71875q0 -0.921875 -0.625 -1.515625q-0.609375 -0.609375 -1.59375 -0.609375q-0.96875 0 -1.625 0.609375q-0.640625 0.609375 -0.828125 1.84375l-1.671875 -0.296875q0.296875 -1.6875 1.375 -2.609375q1.09375 -0.921875 2.71875 -0.921875q1.109375 0 2.046875 0.484375q0.9375 0.46875 1.421875 1.296875q0.5 0.828125 0.5 1.75q0 0.890625 -0.46875 1.609375q-0.46875 0.71875 -1.40625 1.15625q1.21875 0.265625 1.875 1.15625q0.671875 0.875 0.671875 2.1875q0 1.78125 -1.296875 3.015625q-1.296875 1.234375 -3.28125 1.234375q-1.796875 0 -2.984375 -1.0625q-1.171875 -1.0625 -1.34375 -2.765625z" fill-rule="nonzero"></path><path fill="#000000" fill-opacity="0.0" d="m177.14699 725.6116l0 0c0 -12.0720215 9.78627 -21.858276 21.858261 -21.858276l0 0c5.79718 0 11.356903 2.3029175 15.456131 6.4020996c4.0992126 4.099243 6.40213 9.658997 6.40213 15.456177l0 0c0 12.07196 -9.78627 21.858215 -21.858261 21.858215l0 0c-12.071991 0 -21.858261 -9.786255 -21.858261 -21.858215z" fill-rule="nonzero"></path><path stroke="#000000" stroke-width="2.0" stroke-linejoin="round" stroke-linecap="butt" d="m177.14699 725.6116l0 0c0 -12.0720215 9.78627 -21.858276 21.858261 -21.858276l0 0c5.79718 0 11.356903 2.3029175 15.456131 6.4020996c4.0992126 4.099243 6.40213 9.658997 6.40213 15.456177l0 0c0 12.07196 -9.78627 21.858215 -21.858261 21.858215l0 0c-12.071991 0 -21.858261 -9.786255 -21.858261 -21.858215z" fill-rule="nonzero"></path><path fill="#000000" d="m198.68974 732.53156l0 -3.25l-5.90625 0l0 -1.53125l6.21875 -8.8125l1.359375 0l0 8.8125l1.84375 0l0 1.53125l-1.84375 0l0 3.25l-1.671875 0zm0 -4.78125l0 -6.140625l-4.25 6.140625l4.25 0z" fill-rule="nonzero"></path><path fill="#000000" fill-opacity="0.0" d="m333.93832 725.6116l0 0c0 -12.0720215 9.786285 -21.858276 21.858276 -21.858276l0 0c5.7971497 0 11.356903 2.3029175 15.456116 6.4020996c4.0992126 4.099243 6.40213 9.658997 6.40213 15.456177l0 0c0 12.07196 -9.786285 21.858215 -21.858246 21.858215l0 0c-12.071991 0 -21.858276 -9.786255 -21.858276 -21.858215z" fill-rule="nonzero"></path><path stroke="#000000" stroke-width="2.0" stroke-linejoin="round" stroke-linecap="butt" d="m333.93832 725.6116l0 0c0 -12.0720215 9.786285 -21.858276 21.858276 -21.858276l0 0c5.7971497 0 11.356903 2.3029175 15.456116 6.4020996c4.0992126 4.099243 6.40213 9.658997 6.40213 15.456177l0 0c0 12.07196 -9.786285 21.858215 -21.858246 21.858215l0 0c-12.071991 0 -21.858276 -9.786255 -21.858276 -21.858215z" fill-rule="nonzero"></path><path fill="#000000" d="m350.1217 728.96906l1.765625 -0.15625q0.1875 1.28125 0.890625 1.9375q0.71875 0.640625 1.71875 0.640625q1.203125 0 2.03125 -0.90625q0.84375 -0.90625 0.84375 -2.421875q0 -1.421875 -0.8125 -2.25q-0.796875 -0.828125 -2.09375 -0.828125q-0.796875 0 -1.453125 0.375q-0.640625 0.359375 -1.015625 0.953125l-1.578125 -0.203125l1.328125 -7.0l6.765625 0l0 1.609375l-5.4375 0l-0.734375 3.640625q1.234375 -0.84375 2.578125 -0.84375q1.78125 0 3.0 1.234375q1.234375 1.234375 1.234375 3.171875q0 1.84375 -1.078125 3.1875q-1.3125 1.65625 -3.578125 1.65625q-1.859375 0 -3.03125 -1.03125q-1.171875 -1.046875 -1.34375 -2.765625z" fill-rule="nonzero"></path><path fill="#000000" fill-opacity="0.0" d="m98.750656 725.8445l0 0c0 -12.07196 9.786278 -21.858215 21.858269 -21.858215l0 0c5.7971725 0 11.356911 2.3029175 15.456123 6.4020996c4.099228 4.099243 6.4021454 9.658997 6.4021454 15.456116l0 0c0 12.0720215 -9.786285 21.858276 -21.858269 21.858276l0 0c-12.071991 0 -21.858269 -9.786255 -21.858269 -21.858276z" fill-rule="nonzero"></path><path stroke="#000000" stroke-width="2.0" stroke-linejoin="round" stroke-linecap="butt" d="m98.750656 725.8445l0 0c0 -12.07196 9.786278 -21.858215 21.858269 -21.858215l0 0c5.7971725 0 11.356911 2.3029175 15.456123 6.4020996c4.099228 4.099243 6.4021454 9.658997 6.4021454 15.456116l0 0c0 12.0720215 -9.786285 21.858276 -21.858269 21.858276l0 0c-12.071991 0 -21.858269 -9.786255 -21.858269 -21.858276z" fill-rule="nonzero"></path><path fill="#000000" d="m123.60592 722.4989l-1.65625 0.125q-0.21875 -0.984375 -0.640625 -1.421875q-0.671875 -0.71875 -1.65625 -0.71875q-0.8125 0 -1.40625 0.4375q-0.796875 0.578125 -1.25 1.6875q-0.453125 1.09375 -0.46875 3.140625q0.609375 -0.921875 1.46875 -1.359375q0.875 -0.453125 1.828125 -0.453125q1.671875 0 2.84375 1.234375q1.171875 1.234375 1.171875 3.171875q0 1.28125 -0.546875 2.390625q-0.546875 1.09375 -1.515625 1.6875q-0.96875 0.578125 -2.1875 0.578125q-2.09375 0 -3.40625 -1.53125q-1.3125 -1.546875 -1.3125 -5.0625q0 -3.953125 1.453125 -5.734375q1.265625 -1.5625 3.421875 -1.5625q1.609375 0 2.625 0.90625q1.03125 0.890625 1.234375 2.484375zm-6.8125 5.859375q0 0.859375 0.359375 1.65625q0.375 0.78125 1.03125 1.203125q0.65625 0.40625 1.375 0.40625q1.0625 0 1.8125 -0.84375q0.765625 -0.859375 0.765625 -2.328125q0 -1.40625 -0.75 -2.21875q-0.75 -0.8125 -1.890625 -0.8125q-1.125 0 -1.921875 0.8125q-0.78125 0.8125 -0.78125 2.125z" fill-rule="nonzero"></path><path fill="#000000" fill-opacity="0.0" d="m513.3468 579.8609l0 0c0 -12.0720215 9.786255 -21.858276 21.858215 -21.858276l0 0c5.79718 0 11.356934 2.3029175 15.456177 6.4021606c4.099182 4.099182 6.4020996 9.658936 6.4020996 15.456116l0 0c0 12.07196 -9.786255 21.858276 -21.858276 21.858276l0 0c-12.07196 0 -21.858215 -9.786316 -21.858215 -21.858276z" fill-rule="nonzero"></path><path stroke="#000000" stroke-width="2.0" stroke-linejoin="round" stroke-linecap="butt" d="m513.3468 579.8609l0 0c0 -12.0720215 9.786255 -21.858276 21.858215 -21.858276l0 0c5.79718 0 11.356934 2.3029175 15.456177 6.4021606c4.099182 4.099182 6.4020996 9.658936 6.4020996 15.456116l0 0c0 12.07196 -9.786255 21.858276 -21.858276 21.858276l0 0c-12.07196 0 -21.858215 -9.786316 -21.858215 -21.858276z" fill-rule="nonzero"></path><path fill="#000000" d="m535.827 586.7809l-1.671875 0l0 -10.640625q-0.59375 0.578125 -1.578125 1.15625q-0.984375 0.5625 -1.765625 0.859375l0 -1.625q1.40625 -0.65625 2.453125 -1.59375q1.046875 -0.9375 1.484375 -1.8125l1.078125 0l0 13.65625z" fill-rule="nonzero"></path><path fill="#000000" fill-opacity="0.0" d="m552.8189 512.0735l0 0c0 -12.071991 9.786255 -21.858276 21.858276 -21.858276l0 0c5.79718 0 11.356873 2.3029175 15.456116 6.4021606c4.099243 4.0992126 6.4021606 9.658936 6.4021606 15.456116l0 0c0 12.0720215 -9.786316 21.858276 -21.858276 21.858276l0 0c-12.0720215 0 -21.858276 -9.786255 -21.858276 -21.858276z" fill-rule="nonzero"></path><path stroke="#000000" stroke-width="2.0" stroke-linejoin="round" stroke-linecap="butt" d="m552.8189 512.0735l0 0c0 -12.071991 9.786255 -21.858276 21.858276 -21.858276l0 0c5.79718 0 11.356873 2.3029175 15.456116 6.4021606c4.099243 4.0992126 6.4021606 9.658936 6.4021606 15.456116l0 0c0 12.0720215 -9.786316 21.858276 -21.858276 21.858276l0 0c-12.0720215 0 -21.858276 -9.786255 -21.858276 -21.858276z" fill-rule="nonzero"></path><path fill="#000000" d="m577.7835 517.3841l0 1.609375l-8.984375 0q-0.015625 -0.609375 0.1875 -1.15625q0.34375 -0.921875 1.09375 -1.8125q0.765625 -0.890625 2.1875 -2.0625q2.21875 -1.8125 3.0 -2.8749695q0.78125 -1.0625 0.78125 -2.015625q0 -0.984375 -0.71875 -1.671875q-0.703125 -0.6875 -1.84375 -0.6875q-1.203125 0 -1.9375 0.734375q-0.71875 0.71875 -0.71875 2.0l-1.71875 -0.171875q0.171875 -1.921875 1.328125 -2.921875q1.15625 -1.015625 3.09375 -1.015625q1.953125 0 3.09375 1.09375q1.140625 1.078125 1.140625 2.6875q0 0.8125 -0.34375 1.609375q-0.328125 0.78125 -1.109375 1.6562195q-0.765625 0.859375 -2.5625 2.390625q-1.5 1.265625 -1.9375 1.71875q-0.421875 0.4375 -0.703125 0.890625l6.671875 0z" fill-rule="nonzero"></path><path fill="#000000" fill-opacity="0.0" d="m617.62994 459.34515l0 0c0 -12.071991 9.786255 -21.858276 21.858215 -21.858276l0 0c5.79718 0 11.356934 2.3029175 15.456177 6.40213c4.099182 4.0992126 6.4020996 9.658966 6.4020996 15.456146l0 0c0 12.071991 -9.786255 21.858246 -21.858276 21.858246l0 0c-12.07196 0 -21.858215 -9.786255 -21.858215 -21.858246z" fill-rule="nonzero"></path><path stroke="#000000" stroke-width="2.0" stroke-linejoin="round" stroke-linecap="butt" d="m617.62994 459.34515l0 0c0 -12.071991 9.786255 -21.858276 21.858215 -21.858276l0 0c5.79718 0 11.356934 2.3029175 15.456177 6.40213c4.099182 4.0992126 6.4020996 9.658966 6.4020996 15.456146l0 0c0 12.071991 -9.786255 21.858246 -21.858276 21.858246l0 0c-12.07196 0 -21.858215 -9.786255 -21.858215 -21.858246z" fill-rule="nonzero"></path><path fill="#000000" d="m633.8289 462.6714l1.671875 -0.21875q0.28125 1.421875 0.96875 2.046875q0.703125 0.625 1.6875 0.625q1.1875 0 2.0 -0.8125q0.8125 -0.828125 0.8125 -2.03125q0 -1.140625 -0.765625 -1.890625q-0.75 -0.75 -1.90625 -0.75q-0.46875 0 -1.171875 0.1875l0.1875 -1.46875q0.15625 0.015625 0.265625 0.015625q1.0625 0 1.90625 -0.546875q0.859375 -0.5625 0.859375 -1.71875q0 -0.921875 -0.625 -1.515625q-0.609375 -0.609375 -1.59375 -0.609375q-0.96875 0 -1.625 0.609375q-0.640625 0.609375 -0.828125 1.84375l-1.671875 -0.296875q0.296875 -1.6875 1.375 -2.609375q1.09375 -0.921875 2.71875 -0.921875q1.109375 0 2.046875 0.484375q0.9375 0.46875 1.421875 1.296875q0.5 0.828125 0.5 1.75q0 0.890625 -0.46875 1.609375q-0.46875 0.71875 -1.40625 1.15625q1.21875 0.265625 1.875 1.15625q0.671875 0.875 0.671875 2.1875q0 1.78125 -1.296875 3.015625q-1.296875 1.234375 -3.28125 1.234375q-1.796875 0 -2.984375 -1.0625q-1.171875 -1.0625 -1.34375 -2.765625z" fill-rule="nonzero"></path><path fill="#000000" fill-opacity="0.0" d="m639.58923 579.8609l0 0c0 -12.0720215 9.786255 -21.858276 21.858276 -21.858276l0 0c5.79718 0 11.356934 2.3029175 15.456116 6.4021606c4.099243 4.099182 6.4021606 9.658936 6.4021606 15.456116l0 0c0 12.07196 -9.786316 21.858276 -21.858276 21.858276l0 0c-12.0720215 0 -21.858276 -9.786316 -21.858276 -21.858276z" fill-rule="nonzero"></path><path stroke="#000000" stroke-width="2.0" stroke-linejoin="round" stroke-linecap="butt" d="m639.58923 579.8609l0 0c0 -12.0720215 9.786255 -21.858276 21.858276 -21.858276l0 0c5.79718 0 11.356934 2.3029175 15.456116 6.4021606c4.099243 4.099182 6.4021606 9.658936 6.4021606 15.456116l0 0c0 12.07196 -9.786316 21.858276 -21.858276 21.858276l0 0c-12.0720215 0 -21.858276 -9.786316 -21.858276 -21.858276z" fill-rule="nonzero"></path><path fill="#000000" d="m661.132 586.7809l0 -3.25l-5.90625 0l0 -1.53125l6.21875 -8.8125l1.359375 0l0 8.8125l1.84375 0l0 1.53125l-1.84375 0l0 3.25l-1.671875 0zm0 -4.78125l0 -6.140625l-4.25 6.140625l4.25 0z" fill-rule="nonzero"></path><path fill="#000000" fill-opacity="0.0" d="m682.4409 512.0735l0 0c0 -12.071991 9.786316 -21.858276 21.858276 -21.858276l0 0c5.79718 0 11.356934 2.3029175 15.456177 6.4021606c4.099182 4.0992126 6.4020996 9.658936 6.4020996 15.456116l0 0c0 12.0720215 -9.786255 21.858276 -21.858276 21.858276l0 0c-12.07196 0 -21.858276 -9.786255 -21.858276 -21.858276z" fill-rule="nonzero"></path><path stroke="#000000" stroke-width="2.0" stroke-linejoin="round" stroke-linecap="butt" d="m682.4409 512.0735l0 0c0 -12.071991 9.786316 -21.858276 21.858276 -21.858276l0 0c5.79718 0 11.356934 2.3029175 15.456177 6.4021606c4.099182 4.0992126 6.4020996 9.658936 6.4020996 15.456116l0 0c0 12.0720215 -9.786255 21.858276 -21.858276 21.858276l0 0c-12.07196 0 -21.858276 -9.786255 -21.858276 -21.858276z" fill-rule="nonzero"></path><path fill="#000000" d="m698.6243 515.43097l1.765625 -0.15625q0.1875 1.28125 0.890625 1.9375q0.71875 0.640625 1.71875 0.640625q1.203125 0 2.03125 -0.90625q0.84375 -0.90625 0.84375 -2.421875q0 -1.421875 -0.8125 -2.25q-0.796875 -0.8280945 -2.09375 -0.8280945q-0.796875 0 -1.453125 0.375q-0.640625 0.35934448 -1.015625 0.9530945l-1.578125 -0.203125l1.328125 -6.9999695l6.765625 0l0 1.609375l-5.4375 0l-0.734375 3.640625q1.234375 -0.84375 2.578125 -0.84375q1.78125 0 3.0 1.234375q1.234375 1.2343445 1.234375 3.1718445q0 1.84375 -1.078125 3.1875q-1.3125 1.65625 -3.578125 1.65625q-1.859375 0 -3.03125 -1.03125q-1.171875 -1.046875 -1.34375 -2.765625z" fill-rule="nonzero"></path><path fill="#000000" fill-opacity="0.0" d="m726.1575 579.8609l0 0c0 -12.0720215 9.786316 -21.858276 21.858276 -21.858276l0 0c5.79718 0 11.356934 2.3029175 15.456116 6.4021606c4.099243 4.099182 6.4021606 9.658936 6.4021606 15.456116l0 0c0 12.07196 -9.786316 21.858276 -21.858276 21.858276l0 0c-12.07196 0 -21.858276 -9.786316 -21.858276 -21.858276z" fill-rule="nonzero"></path><path stroke="#000000" stroke-width="2.0" stroke-linejoin="round" stroke-linecap="butt" d="m726.1575 579.8609l0 0c0 -12.0720215 9.786316 -21.858276 21.858276 -21.858276l0 0c5.79718 0 11.356934 2.3029175 15.456116 6.4021606c4.099243 4.099182 6.4021606 9.658936 6.4021606 15.456116l0 0c0 12.07196 -9.786316 21.858276 -21.858276 21.858276l0 0c-12.07196 0 -21.858276 -9.786316 -21.858276 -21.858276z" fill-rule="nonzero"></path><path fill="#000000" d="m751.01276 576.51526l-1.65625 0.125q-0.21875 -0.984375 -0.640625 -1.421875q-0.671875 -0.71875 -1.65625 -0.71875q-0.8125 0 -1.40625 0.4375q-0.796875 0.578125 -1.25 1.6875q-0.453125 1.09375 -0.46875 3.140625q0.609375 -0.921875 1.46875 -1.359375q0.875 -0.453125 1.828125 -0.453125q1.671875 0 2.84375 1.234375q1.171875 1.234375 1.171875 3.171875q0 1.28125 -0.546875 2.390625q-0.546875 1.09375 -1.515625 1.6875q-0.96875 0.578125 -2.1875 0.578125q-2.09375 0 -3.40625 -1.53125q-1.3125 -1.546875 -1.3125 -5.0625q0 -3.953125 1.453125 -5.734375q1.265625 -1.5625 3.421875 -1.5625q1.609375 0 2.625 0.90625q1.03125 0.890625 1.234375 2.484375zm-6.8125 5.859375q0 0.859375 0.359375 1.65625q0.375 0.78125 1.03125 1.203125q0.65625 0.40625 1.375 0.40625q1.0625 0 1.8125 -0.84375q0.765625 -0.859375 0.765625 -2.328125q0 -1.40625 -0.75 -2.21875q-0.75 -0.8125 -1.890625 -0.8125q-1.125 0 -1.921875 0.8125q-0.78125 0.8125 -0.78125 2.125z" fill-rule="nonzero"></path><path fill="#000000" fill-opacity="0.0" d="m626.8084 47.48294l104.15747 0l0 36.944878l-104.15747 0z" fill-rule="nonzero"></path><path fill="#000000" d="m637.19904 60.80919l5.4375 0q1.609375 0 2.40625 0.140625q0.796875 0.125 1.421875 0.546875q0.625 0.421875 1.03125 1.140625q0.421875 0.703125 0.421875 1.59375q0 0.953125 -0.515625 1.75q-0.5 0.796875 -1.390625 1.1875q1.25 0.375 1.90625 1.25q0.671875 0.859375 0.671875 2.046875q0 0.921875 -0.4375 1.796875q-0.421875 0.875 -1.171875 1.40625q-0.75 0.515625 -1.84375 0.640625q-0.6875 0.078125 -3.3125 0.09375l-4.625 0l0 -13.59375zm2.75 2.25l0 3.15625l1.796875 0q1.609375 0 2.0 -0.046875q0.703125 -0.09375 1.09375 -0.484375q0.40625 -0.40625 0.40625 -1.0625q0 -0.640625 -0.34375 -1.03125q-0.34375 -0.390625 -1.03125 -0.484375q-0.40625 -0.046875 -2.34375 -0.046875l-1.578125 0zm0 5.421875l0 3.625l2.546875 0q1.484375 0 1.875 -0.078125q0.609375 -0.109375 1.0 -0.53125q0.390625 -0.4375 0.390625 -1.171875q0 -0.609375 -0.296875 -1.03125q-0.296875 -0.421875 -0.859375 -0.609375q-0.5625 -0.203125 -2.4375 -0.203125l-2.21875 0z" fill-rule="nonzero"></path><path fill="#000000" fill-opacity="0.0" d="m14.295276 39.774277l0 0c0 -12.071987 9.786281 -21.858267 21.858265 -21.858267l0 0c5.7971764 0 11.356911 2.3029194 15.456131 6.4021397c4.0992203 4.0992203 6.4021378 9.658955 6.4021378 15.456127l0 0c0 12.071991 -9.786278 21.858269 -21.858269 21.858269l0 0c-12.071985 0 -21.858265 -9.786278 -21.858265 -21.858269z" fill-rule="nonzero"></path><path stroke="#000000" stroke-width="2.0" stroke-linejoin="round" stroke-linecap="butt" d="m14.295276 39.774277l0 0c0 -12.071987 9.786281 -21.858267 21.858265 -21.858267l0 0c5.7971764 0 11.356911 2.3029194 15.456131 6.4021397c4.0992203 4.0992203 6.4021378 9.658955 6.4021378 15.456127l0 0c0 12.071991 -9.786278 21.858269 -21.858269 21.858269l0 0c-12.071985 0 -21.858265 -9.786278 -21.858265 -21.858269z" fill-rule="nonzero"></path><path fill="#000000" d="m36.77554 46.694275l-1.671875 0l0 -10.640625q-0.59375 0.578125 -1.578125 1.15625q-0.984375 0.5625 -1.765625 0.859375l0 -1.625q1.40625 -0.65625 2.453125 -1.59375q1.046875 -0.9375 1.484375 -1.8125l1.078125 0l0 13.65625z" fill-rule="nonzero"></path><path fill="#000000" fill-opacity="0.0" d="m116.1168 39.774277l0 0c0 -12.071987 9.786278 -21.858267 21.858269 -21.858267l0 0c5.797165 0 11.356903 2.3029194 15.456131 6.4021397c4.0992126 4.0992203 6.40213 9.658955 6.40213 15.456127l0 0c0 12.071991 -9.78627 21.858269 -21.858261 21.858269l0 0c-12.071991 0 -21.858269 -9.786278 -21.858269 -21.858269z" fill-rule="nonzero"></path><path stroke="#000000" stroke-width="2.0" stroke-linejoin="round" stroke-linecap="butt" d="m116.1168 39.774277l0 0c0 -12.071987 9.786278 -21.858267 21.858269 -21.858267l0 0c5.797165 0 11.356903 2.3029194 15.456131 6.4021397c4.0992126 4.0992203 6.40213 9.658955 6.40213 15.456127l0 0c0 12.071991 -9.78627 21.858269 -21.858261 21.858269l0 0c-12.071991 0 -21.858269 -9.786278 -21.858269 -21.858269z" fill-rule="nonzero"></path><path fill="#000000" d="m141.08144 45.0849l0 1.609375l-8.984375 0q-0.015625 -0.609375 0.1875 -1.15625q0.34375 -0.921875 1.09375 -1.8125q0.765625 -0.890625 2.1875 -2.0625q2.21875 -1.8125 3.0 -2.875q0.78125 -1.0625 0.78125 -2.015625q0 -0.984375 -0.71875 -1.671875q-0.703125 -0.6875 -1.84375 -0.6875q-1.203125 0 -1.9375 0.734375q-0.71875 0.71875 -0.71875 2.0l-1.71875 -0.171875q0.171875 -1.921875 1.328125 -2.921875q1.15625 -1.015625 3.09375 -1.015625q1.953125 0 3.09375 1.09375q1.140625 1.078125 1.140625 2.6875q0 0.8125 -0.34375 1.609375q-0.328125 0.78125 -1.109375 1.65625q-0.765625 0.859375 -2.5625 2.390625q-1.5 1.265625 -1.9375 1.71875q-0.421875 0.4375 -0.703125 0.890625l6.671875 0z" fill-rule="nonzero"></path><path fill="#000000" fill-opacity="0.0" d="m216.84383 39.774277l0 0c0 -12.071987 9.786285 -21.858267 21.858276 -21.858267l0 0c5.797165 0 11.356903 2.3029194 15.456131 6.4021397c4.0992126 4.0992203 6.40213 9.658955 6.40213 15.456127l0 0c0 12.071991 -9.78627 21.858269 -21.858261 21.858269l0 0c-12.071991 0 -21.858276 -9.786278 -21.858276 -21.858269z" fill-rule="nonzero"></path><path stroke="#000000" stroke-width="2.0" stroke-linejoin="round" stroke-linecap="butt" d="m216.84383 39.774277l0 0c0 -12.071987 9.786285 -21.858267 21.858276 -21.858267l0 0c5.797165 0 11.356903 2.3029194 15.456131 6.4021397c4.0992126 4.0992203 6.40213 9.658955 6.40213 15.456127l0 0c0 12.071991 -9.78627 21.858269 -21.858261 21.858269l0 0c-12.071991 0 -21.858276 -9.786278 -21.858276 -21.858269z" fill-rule="nonzero"></path><path fill="#000000" d="m233.04285 43.100525l1.671875 -0.21875q0.28125 1.421875 0.96875 2.046875q0.703125 0.625 1.6875 0.625q1.1875 0 2.0 -0.8125q0.8125 -0.828125 0.8125 -2.03125q0 -1.140625 -0.765625 -1.890625q-0.75 -0.75 -1.90625 -0.75q-0.46875 0 -1.171875 0.1875l0.1875 -1.46875q0.15625 0.015625 0.265625 0.015625q1.0625 0 1.90625 -0.546875q0.859375 -0.5625 0.859375 -1.71875q0 -0.921875 -0.625 -1.515625q-0.609375 -0.609375 -1.59375 -0.609375q-0.96875 0 -1.625 0.609375q-0.640625 0.609375 -0.828125 1.84375l-1.671875 -0.296875q0.296875 -1.6875 1.375 -2.609375q1.09375 -0.921875 2.71875 -0.921875q1.109375 0 2.046875 0.484375q0.9375 0.46875 1.421875 1.296875q0.5 0.828125 0.5 1.75q0 0.890625 -0.46875 1.609375q-0.46875 0.71875 -1.40625 1.15625q1.21875 0.265625 1.875 1.15625q0.671875 0.875 0.671875 2.1875q0 1.78125 -1.296875 3.015625q-1.296875 1.234375 -3.28125 1.234375q-1.796875 0 -2.984375 -1.0625q-1.171875 -1.0625 -1.34375 -2.765625z" fill-rule="nonzero"></path><path fill="#000000" fill-opacity="0.0" d="m18.242044 121.22835l0 0c0 -12.071991 9.78628 -21.858269 21.858267 -21.858269l0 0c5.7971725 0 11.356911 2.3029175 15.456131 6.4021378c4.0992203 4.0992203 6.4021378 9.658958 6.4021378 15.456131l0 0c0 12.071991 -9.786282 21.858261 -21.858269 21.858261l0 0c-12.071987 0 -21.858267 -9.78627 -21.858267 -21.858261z" fill-rule="nonzero"></path><path stroke="#000000" stroke-width="2.0" stroke-linejoin="round" stroke-linecap="butt" d="m18.242044 121.22835l0 0c0 -12.071991 9.78628 -21.858269 21.858267 -21.858269l0 0c5.7971725 0 11.356911 2.3029175 15.456131 6.4021378c4.0992203 4.0992203 6.4021378 9.658958 6.4021378 15.456131l0 0c0 12.071991 -9.786282 21.858261 -21.858269 21.858261l0 0c-12.071987 0 -21.858267 -9.78627 -21.858267 -21.858261z" fill-rule="nonzero"></path><path fill="#000000" d="m39.78481 128.14835l0 -3.25l-5.90625 0l0 -1.53125l6.21875 -8.8125l1.359375 0l0 8.8125l1.84375 0l0 1.53125l-1.84375 0l0 3.25l-1.671875 0zm0 -4.78125l0 -6.140625l-4.25 6.140625l4.25 0z" fill-rule="nonzero"></path><path fill="#000000" fill-opacity="0.0" d="m118.480316 121.22835l0 0c0 -12.071991 9.786285 -21.858269 21.858261 -21.858269l0 0c5.79718 0 11.356918 2.3029175 15.456131 6.4021378c4.099228 4.0992203 6.4021454 9.658958 6.4021454 15.456131l0 0c0 12.071991 -9.786285 21.858261 -21.858276 21.858261l0 0c-12.071976 0 -21.858261 -9.78627 -21.858261 -21.858261z" fill-rule="nonzero"></path><path stroke="#000000" stroke-width="2.0" stroke-linejoin="round" stroke-linecap="butt" d="m118.480316 121.22835l0 0c0 -12.071991 9.786285 -21.858269 21.858261 -21.858269l0 0c5.79718 0 11.356918 2.3029175 15.456131 6.4021378c4.099228 4.0992203 6.4021454 9.658958 6.4021454 15.456131l0 0c0 12.071991 -9.786285 21.858261 -21.858276 21.858261l0 0c-12.071976 0 -21.858261 -9.78627 -21.858261 -21.858261z" fill-rule="nonzero"></path><path fill="#000000" d="m134.6637 124.585846l1.765625 -0.15625q0.1875 1.28125 0.890625 1.9375q0.71875 0.640625 1.71875 0.640625q1.203125 0 2.03125 -0.90625q0.84375 -0.90625 0.84375 -2.421875q0 -1.421875 -0.8125 -2.25q-0.796875 -0.828125 -2.09375 -0.828125q-0.796875 0 -1.453125 0.375q-0.640625 0.359375 -1.015625 0.953125l-1.578125 -0.203125l1.328125 -7.0l6.765625 0l0 1.609375l-5.4375 0l-0.734375 3.640625q1.234375 -0.84375 2.578125 -0.84375q1.78125 0 3.0 1.234375q1.234375 1.234375 1.234375 3.171875q0 1.84375 -1.078125 3.1875q-1.3125 1.65625 -3.578125 1.65625q-1.859375 0 -3.03125 -1.03125q-1.171875 -1.046875 -1.34375 -2.765625z" fill-rule="nonzero"></path><path fill="#000000" fill-opacity="0.0" d="m216.84383 121.22835l0 0c0 -12.071991 9.786285 -21.858269 21.858276 -21.858269l0 0c5.797165 0 11.356903 2.3029175 15.456131 6.4021378c4.0992126 4.0992203 6.40213 9.658958 6.40213 15.456131l0 0c0 12.071991 -9.78627 21.858261 -21.858261 21.858261l0 0c-12.071991 0 -21.858276 -9.78627 -21.858276 -21.858261z" fill-rule="nonzero"></path><path stroke="#000000" stroke-width="2.0" stroke-linejoin="round" stroke-linecap="butt" d="m216.84383 121.22835l0 0c0 -12.071991 9.786285 -21.858269 21.858276 -21.858269l0 0c5.797165 0 11.356903 2.3029175 15.456131 6.4021378c4.0992126 4.0992203 6.40213 9.658958 6.40213 15.456131l0 0c0 12.071991 -9.78627 21.858261 -21.858261 21.858261l0 0c-12.071991 0 -21.858276 -9.78627 -21.858276 -21.858261z" fill-rule="nonzero"></path><path fill="#000000" d="m241.6991 117.88272l-1.65625 0.125q-0.21875 -0.984375 -0.640625 -1.421875q-0.671875 -0.71875 -1.65625 -0.71875q-0.8125 0 -1.40625 0.4375q-0.796875 0.578125 -1.25 1.6875q-0.453125 1.09375 -0.46875 3.140625q0.609375 -0.921875 1.46875 -1.359375q0.875 -0.453125 1.828125 -0.453125q1.671875 0 2.84375 1.234375q1.171875 1.234375 1.171875 3.171875q0 1.28125 -0.546875 2.390625q-0.546875 1.09375 -1.515625 1.6875q-0.96875 0.578125 -2.1875 0.578125q-2.09375 0 -3.40625 -1.53125q-1.3125 -1.546875 -1.3125 -5.0625q0 -3.953125 1.453125 -5.734375q1.265625 -1.5625 3.421875 -1.5625q1.609375 0 2.625 0.90625q1.03125 0.890625 1.234375 2.484375zm-6.8125 5.859375q0 0.859375 0.359375 1.65625q0.375 0.78125 1.03125 1.203125q0.65625 0.40625 1.375 0.40625q1.0625 0 1.8125 -0.84375q0.765625 -0.859375 0.765625 -2.328125q0 -1.40625 -0.75 -2.21875q-0.75 -0.8125 -1.890625 -0.8125q-1.125 0 -1.921875 0.8125q-0.78125 0.8125 -0.78125 2.125z" fill-rule="nonzero"></path><path fill="#000000" fill-opacity="0.0" d="m58.01181 39.774277l58.110237 0" fill-rule="nonzero"></path><path stroke="#000000" stroke-width="1.0" stroke-linejoin="round" stroke-linecap="butt" d="m58.01181 39.774277l52.110237 0" fill-rule="evenodd"></path><path fill="#000000" stroke="#000000" stroke-width="1.0" stroke-linecap="butt" d="m110.12205 41.42601l4.538101 -1.6517334l-4.538101 -1.6517296z" fill-rule="evenodd"></path><path fill="#000000" fill-opacity="0.0" d="m116.1168 39.774277l-58.110237 0" fill-rule="nonzero"></path><path stroke="#000000" stroke-width="1.0" stroke-linejoin="round" stroke-linecap="butt" d="m116.1168 39.774277l-52.110237 0" fill-rule="evenodd"></path><path fill="#000000" stroke="#000000" stroke-width="1.0" stroke-linecap="butt" d="m64.00656 38.122547l-4.5380974 1.6517296l4.5380974 1.6517334z" fill-rule="evenodd"></path><path fill="#000000" fill-opacity="0.0" d="m216.84383 39.774277l-57.007874 0" fill-rule="nonzero"></path><path stroke="#000000" stroke-width="1.0" stroke-linejoin="round" stroke-linecap="butt" d="m216.84383 39.774277l-51.007874 0" fill-rule="evenodd"></path><path fill="#000000" stroke="#000000" stroke-width="1.0" stroke-linecap="butt" d="m165.83595 38.122547l-4.538086 1.6517296l4.538086 1.6517334z" fill-rule="evenodd"></path><path fill="#000000" fill-opacity="0.0" d="m223.24597 55.230408l-67.46457 50.551178" fill-rule="nonzero"></path><path stroke="#000000" stroke-width="1.0" stroke-linejoin="round" stroke-linecap="butt" d="m223.24596 55.230408l-62.662933 46.95333" fill-rule="evenodd"></path><path fill="#000000" stroke="#000000" stroke-width="1.0" stroke-linecap="butt" d="m159.59258 100.86191l-2.6412506 4.0430603l4.6221466 -1.3993988z" fill-rule="evenodd"></path><path fill="#000000" fill-opacity="0.0" d="m162.19685 121.22835l54.64566 0" fill-rule="nonzero"></path><path stroke="#000000" stroke-width="1.0" stroke-linejoin="round" stroke-linecap="butt" d="m162.19685 121.22835l48.64566 0" fill-rule="evenodd"></path><path fill="#000000" stroke="#000000" stroke-width="1.0" stroke-linecap="butt" d="m210.84251 122.88008l4.538101 -1.6517334l-4.538101 -1.6517334z" fill-rule="evenodd"></path><path fill="#000000" fill-opacity="0.0" d="m216.84383 121.22835l-54.64566 0" fill-rule="nonzero"></path><path stroke="#000000" stroke-width="1.0" stroke-linejoin="round" stroke-linecap="butt" d="m216.84383 121.22835l-48.64566 0" fill-rule="evenodd"></path><path fill="#000000" stroke="#000000" stroke-width="1.0" stroke-linecap="butt" d="m168.19817 119.576614l-4.538101 1.6517334l4.538101 1.6517334z" fill-rule="evenodd"></path><path fill="#000000" fill-opacity="0.0" d="m118.480316 121.22835l-56.535435 0" fill-rule="nonzero"></path><path stroke="#000000" stroke-width="1.0" stroke-linejoin="round" stroke-linecap="butt" d="m118.480316 121.22835l-50.53543 0" fill-rule="evenodd"></path><path fill="#000000" stroke="#000000" stroke-width="1.0" stroke-linecap="butt" d="m67.944885 119.576614l-4.538101 1.6517334l4.538101 1.6517334z" fill-rule="evenodd"></path><path fill="#000000" fill-opacity="0.0" d="m493.42783 47.086613l-0.28347778 37.73229" fill-rule="nonzero"></path><path stroke="#000000" stroke-width="1.0" stroke-linejoin="round" stroke-linecap="butt" d="m493.42783 47.086613l-0.23840332 31.732456" fill-rule="evenodd"></path><path fill="#000000" stroke="#000000" stroke-width="1.0" stroke-linecap="butt" d="m491.53775 78.806656l1.6175842 4.5503845l1.685791 -4.525566z" fill-rule="evenodd"></path><path fill="#000000" fill-opacity="0.0" d="m618.985 25.228346l55.118103 0" fill-rule="nonzero"></path><path stroke="#000000" stroke-width="1.0" stroke-linejoin="round" stroke-linecap="butt" d="m618.985 25.228346l49.118103 0" fill-rule="evenodd"></path><path fill="#000000" stroke="#000000" stroke-width="1.0" stroke-linecap="butt" d="m668.1031 26.88008l4.538086 -1.6517334l-4.538086 -1.6517315z" fill-rule="evenodd"></path><path fill="#000000" fill-opacity="0.0" d="m582.15674 91.22629l-73.25986 -50.55118" fill-rule="nonzero"></path><path stroke="#000000" stroke-width="1.0" stroke-linejoin="round" stroke-linecap="butt" d="m582.15674 91.22629l-68.32141 -47.143543" fill-rule="evenodd"></path><path fill="#000000" stroke="#000000" stroke-width="1.0" stroke-linecap="butt" d="m514.7734 42.72325l-4.673218 -1.2178726l2.797058 3.9368553z" fill-rule="evenodd"></path><path fill="#000000" fill-opacity="0.0" d="m597.61285 84.82415l-0.4724121 -37.73229" fill-rule="nonzero"></path><path stroke="#000000" stroke-width="1.0" stroke-linejoin="round" stroke-linecap="butt" d="m597.61285 84.82415l-0.39727783 -31.732758" fill-rule="evenodd"></path><path fill="#000000" stroke="#000000" stroke-width="1.0" stroke-linecap="butt" d="m598.8671 53.070713l-1.708374 -4.517063l-1.5947876 4.558422z" fill-rule="evenodd"></path><path fill="#000000" fill-opacity="0.0" d="m575.7546 106.68241l-60.75592 0" fill-rule="nonzero"></path><path stroke="#000000" stroke-width="1.0" stroke-linejoin="round" stroke-linecap="butt" d="m575.7546 106.68241l-54.75592 0" fill-rule="evenodd"></path><path fill="#000000" stroke="#000000" stroke-width="1.0" stroke-linecap="butt" d="m520.99866 105.030685l-4.538086 1.6517258l4.538086 1.6517334z" fill-rule="evenodd"></path><path fill="#000000" fill-opacity="0.0" d="m619.4711 106.68241l54.64569 0" fill-rule="nonzero"></path><path stroke="#000000" stroke-width="1.0" stroke-linejoin="round" stroke-linecap="butt" d="m619.4711 106.68241l48.64569 0" fill-rule="evenodd"></path><path fill="#000000" stroke="#000000" stroke-width="1.0" stroke-linecap="butt" d="m668.1168 108.334145l4.538086 -1.6517334l-4.538086 -1.6517258z" fill-rule="evenodd"></path><path fill="#000000" fill-opacity="0.0" d="m58.007874 62.02887l104.157486 0l0 36.944885l-104.157486 0z" fill-rule="nonzero"></path><path fill="#000000" d="m80.6485 88.94887l-2.984375 0l-1.1875 -3.09375l-5.4375 0l-1.125 3.09375l-2.90625 0l5.296875 -13.59375l2.90625 0l5.4375 13.59375zm-5.046875 -5.375l-1.875 -5.046875l-1.84375 5.046875l3.71875 0z" fill-rule="nonzero"></path><path fill="#000000" fill-opacity="0.0" d="m168.98688 306.75723l104.15747 0l0 36.944855l-104.15747 0z" fill-rule="nonzero"></path><path fill="#000000" d="m188.065 328.67722l2.671875 0.84375q-0.609375 2.21875 -2.046875 3.3125q-1.421875 1.078125 -3.609375 1.078125q-2.703125 0 -4.453125 -1.84375q-1.734375 -1.859375 -1.734375 -5.078125q0 -3.390625 1.75 -5.265625q1.75 -1.875 4.609375 -1.875q2.5 0 4.046875 1.46875q0.9375 0.875 1.390625 2.5l-2.71875 0.65625q-0.234375 -1.0625 -1.0 -1.671875q-0.765625 -0.609375 -1.859375 -0.609375q-1.515625 0 -2.453125 1.09375q-0.9375 1.078125 -0.9375 3.5q0 2.578125 0.921875 3.6875q0.921875 1.09375 2.40625 1.09375q1.109375 0 1.890625 -0.6875q0.78125 -0.703125 1.125 -2.203125z" fill-rule="nonzero"></path><path fill="#000000" fill-opacity="0.0" d="m50.132545 302.7126l0 45.0394" fill-rule="nonzero"></path><path stroke="#000000" stroke-width="1.0" stroke-linejoin="round" stroke-linecap="butt" d="m50.132545 302.7126l0 39.0394" fill-rule="evenodd"></path><path fill="#000000" stroke="#000000" stroke-width="1.0" stroke-linecap="butt" d="m48.480812 341.75198l1.6517334 4.538086l1.6517334 -4.538086z" fill-rule="evenodd"></path><path fill="#000000" fill-opacity="0.0" d="m71.990814 369.60236l44.125984 0" fill-rule="nonzero"></path><path stroke="#000000" stroke-width="1.0" stroke-linejoin="round" stroke-linecap="butt" d="m71.990814 369.60236l38.125984 0" fill-rule="evenodd"></path><path fill="#000000" stroke="#000000" stroke-width="1.0" stroke-linecap="butt" d="m110.1168 371.2541l4.5380936 -1.6517334l-4.5380936 -1.6517334z" fill-rule="evenodd"></path><path fill="#000000" fill-opacity="0.0" d="m159.83464 369.60236l44.12599 0" fill-rule="nonzero"></path><path stroke="#000000" stroke-width="1.0" stroke-linejoin="round" stroke-linecap="butt" d="m159.83464 369.60236l38.12599 0" fill-rule="evenodd"></path><path fill="#000000" stroke="#000000" stroke-width="1.0" stroke-linecap="butt" d="m197.96063 371.2541l4.538101 -1.6517334l-4.538101 -1.6517334z" fill-rule="evenodd"></path><path fill="#000000" fill-opacity="0.0" d="m225.8202 347.74408l0 -45.039368" fill-rule="nonzero"></path><path stroke="#000000" stroke-width="1.0" stroke-linejoin="round" stroke-linecap="butt" d="m225.8202 347.74408l0 -39.039368" fill-rule="evenodd"></path><path fill="#000000" stroke="#000000" stroke-width="1.0" stroke-linecap="butt" d="m227.47194 308.7047l-1.6517334 -4.538086l-1.6517334 4.538086z" fill-rule="evenodd"></path><path fill="#000000" fill-opacity="0.0" d="m203.96194 280.85434l-44.12599 0" fill-rule="nonzero"></path><path stroke="#000000" stroke-width="1.0" stroke-linejoin="round" stroke-linecap="butt" d="m203.96194 280.85434l-38.12599 0" fill-rule="evenodd"></path><path fill="#000000" stroke="#000000" stroke-width="1.0" stroke-linecap="butt" d="m165.83595 279.2026l-4.538086 1.6517334l4.538086 1.6517334z" fill-rule="evenodd"></path><path fill="#000000" fill-opacity="0.0" d="m116.1168 280.85434l-44.125984 0" fill-rule="nonzero"></path><path stroke="#000000" stroke-width="1.0" stroke-linejoin="round" stroke-linecap="butt" d="m116.1168 280.85434l-38.125984 0" fill-rule="evenodd"></path><path fill="#000000" stroke="#000000" stroke-width="1.0" stroke-linecap="butt" d="m77.990814 279.2026l-4.538101 1.6517334l4.538101 1.6517334z" fill-rule="evenodd"></path><path fill="#000000" fill-opacity="0.0" d="m508.89764 206.10236l0 0c0 -12.071976 9.786255 -21.858261 21.858276 -21.858261l0 0c5.79718 0 11.356873 2.3029175 15.456116 6.4021454c4.099243 4.0992126 6.4021606 9.658951 6.4021606 15.456116l0 0c0 12.071991 -9.786316 21.858276 -21.858276 21.858276l0 0c-12.0720215 0 -21.858276 -9.786285 -21.858276 -21.858276z" fill-rule="nonzero"></path><path stroke="#000000" stroke-width="2.0" stroke-linejoin="round" stroke-linecap="butt" d="m508.89764 206.10236l0 0c0 -12.071976 9.786255 -21.858261 21.858276 -21.858261l0 0c5.79718 0 11.356873 2.3029175 15.456116 6.4021454c4.099243 4.0992126 6.4021606 9.658951 6.4021606 15.456116l0 0c0 12.071991 -9.786316 21.858276 -21.858276 21.858276l0 0c-12.0720215 0 -21.858276 -9.786285 -21.858276 -21.858276z" fill-rule="nonzero"></path><path fill="#000000" d="m531.3779 213.02235l-1.671875 0l0 -10.640625q-0.59375 0.578125 -1.578125 1.15625q-0.984375 0.5625 -1.765625 0.859375l0 -1.625q1.40625 -0.65625 2.453125 -1.59375q1.046875 -0.9375 1.484375 -1.8125l1.078125 0l0 13.65625z" fill-rule="nonzero"></path><path fill="#000000" fill-opacity="0.0" d="m596.73883 205.47076l0 0c0 -12.071991 9.786316 -21.858261 21.858276 -21.858261l0 0c5.79718 0 11.356934 2.3029175 15.456116 6.40213c4.099243 4.099228 6.4021606 9.658951 6.4021606 15.456131l0 0c0 12.071991 -9.786255 21.858261 -21.858276 21.858261l0 0c-12.07196 0 -21.858276 -9.78627 -21.858276 -21.858261z" fill-rule="nonzero"></path><path stroke="#000000" stroke-width="2.0" stroke-linejoin="round" stroke-linecap="butt" d="m596.73883 205.47076l0 0c0 -12.071991 9.786316 -21.858261 21.858276 -21.858261l0 0c5.79718 0 11.356934 2.3029175 15.456116 6.40213c4.099243 4.099228 6.4021606 9.658951 6.4021606 15.456131l0 0c0 12.071991 -9.786255 21.858261 -21.858276 21.858261l0 0c-12.07196 0 -21.858276 -9.78627 -21.858276 -21.858261z" fill-rule="nonzero"></path><path fill="#000000" d="m621.7035 210.78139l0 1.609375l-8.984375 0q-0.015625 -0.609375 0.1875 -1.15625q0.34375 -0.921875 1.09375 -1.8125q0.765625 -0.890625 2.1875 -2.0625q2.21875 -1.8125 3.0 -2.875q0.78125 -1.0625 0.78125 -2.015625q0 -0.984375 -0.71875 -1.671875q-0.703125 -0.6875 -1.84375 -0.6875q-1.203125 0 -1.9375 0.734375q-0.71875 0.71875 -0.71875 2.0l-1.71875 -0.171875q0.171875 -1.921875 1.328125 -2.921875q1.15625 -1.015625 3.09375 -1.015625q1.953125 0 3.09375 1.09375q1.140625 1.078125 1.140625 2.6875q0 0.8125 -0.34375 1.609375q-0.328125 0.78125 -1.109375 1.65625q-0.765625 0.859375 -2.5625 2.390625q-1.5 1.265625 -1.9375 1.71875q-0.421875 0.4375 -0.703125 0.890625l6.671875 0z" fill-rule="nonzero"></path><path fill="#000000" fill-opacity="0.0" d="m596.7402 374.5866l0 0c0 -12.071991 9.786255 -21.858276 21.858276 -21.858276l0 0c5.797119 0 11.356873 2.3029175 15.456116 6.4021606c4.099182 4.0992126 6.4020996 9.658936 6.4020996 15.456116l0 0c0 12.071991 -9.786255 21.858276 -21.858215 21.858276l0 0c-12.0720215 0 -21.858276 -9.786285 -21.858276 -21.858276z" fill-rule="nonzero"></path><path stroke="#000000" stroke-width="2.0" stroke-linejoin="round" stroke-linecap="butt" d="m596.7402 374.5866l0 0c0 -12.071991 9.786255 -21.858276 21.858276 -21.858276l0 0c5.797119 0 11.356873 2.3029175 15.456116 6.4021606c4.099182 4.0992126 6.4020996 9.658936 6.4020996 15.456116l0 0c0 12.071991 -9.786255 21.858276 -21.858215 21.858276l0 0c-12.0720215 0 -21.858276 -9.786285 -21.858276 -21.858276z" fill-rule="nonzero"></path><path fill="#000000" d="m612.93915 377.91287l1.671875 -0.21875q0.28125 1.421875 0.96875 2.046875q0.703125 0.625 1.6875 0.625q1.1875 0 2.0 -0.8125q0.8125 -0.828125 0.8125 -2.03125q0 -1.140625 -0.765625 -1.890625q-0.75 -0.75 -1.90625 -0.75q-0.46875 0 -1.171875 0.1875l0.1875 -1.46875q0.15625 0.015625 0.265625 0.015625q1.0625 0 1.90625 -0.546875q0.859375 -0.5625 0.859375 -1.71875q0 -0.921875 -0.625 -1.515625q-0.609375 -0.609375 -1.59375 -0.609375q-0.96875 0 -1.625 0.609375q-0.640625 0.609375 -0.828125 1.84375l-1.671875 -0.296875q0.296875 -1.6875 1.375 -2.609375q1.09375 -0.921875 2.71875 -0.921875q1.109375 0 2.046875 0.484375q0.9375 0.46875 1.421875 1.296875q0.5 0.828125 0.5 1.75q0 0.890625 -0.46875 1.609375q-0.46875 0.71875 -1.40625 1.15625q1.21875 0.265625 1.875 1.15625q0.671875 0.875 0.671875 2.1875q0 1.78125 -1.296875 3.015625q-1.296875 1.234375 -3.28125 1.234375q-1.796875 0 -2.984375 -1.0625q-1.171875 -1.0625 -1.34375 -2.765625z" fill-rule="nonzero"></path><path fill="#000000" fill-opacity="0.0" d="m596.7402 295.29135l0 0c0 -12.071991 9.786255 -21.858276 21.858276 -21.858276l0 0c5.797119 0 11.356873 2.3029175 15.456116 6.40213c4.099182 4.0992126 6.4020996 9.658966 6.4020996 15.456146l0 0c0 12.07196 -9.786255 21.858246 -21.858215 21.858246l0 0c-12.0720215 0 -21.858276 -9.786285 -21.858276 -21.858246z" fill-rule="nonzero"></path><path stroke="#000000" stroke-width="2.0" stroke-linejoin="round" stroke-linecap="butt" d="m596.7402 295.29135l0 0c0 -12.071991 9.786255 -21.858276 21.858276 -21.858276l0 0c5.797119 0 11.356873 2.3029175 15.456116 6.40213c4.099182 4.0992126 6.4020996 9.658966 6.4020996 15.456146l0 0c0 12.07196 -9.786255 21.858246 -21.858215 21.858246l0 0c-12.0720215 0 -21.858276 -9.786285 -21.858276 -21.858246z" fill-rule="nonzero"></path><path fill="#000000" d="m618.2829 302.21133l0 -3.25l-5.90625 0l0 -1.53125l6.21875 -8.8125l1.359375 0l0 8.8125l1.84375 0l0 1.53125l-1.84375 0l0 3.25l-1.671875 0zm0 -4.78125l0 -6.140625l-4.25 6.140625l4.25 0z" fill-rule="nonzero"></path><path fill="#000000" fill-opacity="0.0" d="m682.4409 204.4685l0 0c0 -12.071991 9.786316 -21.858276 21.858276 -21.858276l0 0c5.79718 0 11.356934 2.3029175 15.456177 6.4021454c4.099182 4.0992126 6.4020996 9.658951 6.4020996 15.456131l0 0c0 12.071991 -9.786255 21.858261 -21.858276 21.858261l0 0c-12.07196 0 -21.858276 -9.78627 -21.858276 -21.858261z" fill-rule="nonzero"></path><path stroke="#000000" stroke-width="2.0" stroke-linejoin="round" stroke-linecap="butt" d="m682.4409 204.4685l0 0c0 -12.071991 9.786316 -21.858276 21.858276 -21.858276l0 0c5.79718 0 11.356934 2.3029175 15.456177 6.4021454c4.099182 4.0992126 6.4020996 9.658951 6.4020996 15.456131l0 0c0 12.071991 -9.786255 21.858261 -21.858276 21.858261l0 0c-12.07196 0 -21.858276 -9.78627 -21.858276 -21.858261z" fill-rule="nonzero"></path><path fill="#000000" d="m698.6243 207.826l1.765625 -0.15625q0.1875 1.28125 0.890625 1.9375q0.71875 0.640625 1.71875 0.640625q1.203125 0 2.03125 -0.90625q0.84375 -0.90625 0.84375 -2.421875q0 -1.421875 -0.8125 -2.25q-0.796875 -0.828125 -2.09375 -0.828125q-0.796875 0 -1.453125 0.375q-0.640625 0.359375 -1.015625 0.953125l-1.578125 -0.203125l1.328125 -7.0l6.765625 0l0 1.609375l-5.4375 0l-0.734375 3.640625q1.234375 -0.84375 2.578125 -0.84375q1.78125 0 3.0 1.234375q1.234375 1.234375 1.234375 3.171875q0 1.84375 -1.078125 3.1875q-1.3125 1.65625 -3.578125 1.65625q-1.859375 0 -3.03125 -1.03125q-1.171875 -1.046875 -1.34375 -2.765625z" fill-rule="nonzero"></path><path fill="#000000" fill-opacity="0.0" d="m508.89764 294.7847l0 0c0 -12.071991 9.786255 -21.858276 21.858276 -21.858276l0 0c5.79718 0 11.356873 2.3029175 15.456116 6.4021606c4.099243 4.0992126 6.4021606 9.658936 6.4021606 15.456116l0 0c0 12.071991 -9.786316 21.858276 -21.858276 21.858276l0 0c-12.0720215 0 -21.858276 -9.786285 -21.858276 -21.858276z" fill-rule="nonzero"></path><path stroke="#000000" stroke-width="2.0" stroke-linejoin="round" stroke-linecap="butt" d="m508.89764 294.7847l0 0c0 -12.071991 9.786255 -21.858276 21.858276 -21.858276l0 0c5.79718 0 11.356873 2.3029175 15.456116 6.4021606c4.099243 4.0992126 6.4021606 9.658936 6.4021606 15.456116l0 0c0 12.071991 -9.786316 21.858276 -21.858276 21.858276l0 0c-12.0720215 0 -21.858276 -9.786285 -21.858276 -21.858276z" fill-rule="nonzero"></path><path fill="#000000" d="m533.7529 291.4391l-1.65625 0.125q-0.21875 -0.984375 -0.640625 -1.421875q-0.671875 -0.71875 -1.65625 -0.71875q-0.8125 0 -1.40625 0.4375q-0.796875 0.578125 -1.25 1.6875q-0.453125 1.09375 -0.46875 3.140625q0.609375 -0.921875 1.46875 -1.359375q0.875 -0.453125 1.828125 -0.453125q1.671875 0 2.84375 1.234375q1.171875 1.234375 1.171875 3.171875q0 1.28125 -0.546875 2.390625q-0.546875 1.09375 -1.515625 1.6875q-0.96875 0.578125 -2.1875 0.578125q-2.09375 0 -3.40625 -1.53125q-1.3125 -1.546875 -1.3125 -5.0625q0 -3.953125 1.453125 -5.734375q1.265625 -1.5625 3.421875 -1.5625q1.609375 0 2.625 0.90625q1.03125 0.890625 1.234375 2.484375zm-6.8125 5.859375q0 0.859375 0.359375 1.65625q0.375 0.78125 1.03125 1.203125q0.65625 0.40625 1.375 0.40625q1.0625 0 1.8125 -0.84375q0.765625 -0.859375 0.765625 -2.328125q0 -1.40625 -0.75 -2.21875q-0.75 -0.8125 -1.890625 -0.8125q-1.125 0 -1.921875 0.8125q-0.78125 0.8125 -0.78125 2.125z" fill-rule="nonzero"></path><path fill="#000000" fill-opacity="0.0" d="m664.62335 248.76903l104.15747 0l0 36.94487l-104.15747 0z" fill-rule="nonzero"></path><path fill="#000000" d="m674.99835 262.09528l5.015625 0q1.703125 0 2.59375 0.25q1.1875 0.359375 2.046875 1.265625q0.859375 0.890625 1.296875 2.203125q0.453125 1.296875 0.453125 3.203125q0 1.6875 -0.421875 2.890625q-0.515625 1.484375 -1.453125 2.40625q-0.71875 0.703125 -1.9375 1.09375q-0.90625 0.28125 -2.421875 0.28125l-5.171875 0l0 -13.59375zm2.75 2.296875l0 9.0l2.046875 0q1.140625 0 1.65625 -0.125q0.671875 -0.171875 1.109375 -0.5625q0.4375 -0.40625 0.71875 -1.3125q0.28125 -0.921875 0.28125 -2.5q0 -1.578125 -0.28125 -2.421875q-0.28125 -0.84375 -0.78125 -1.3125q-0.5 -0.46875 -1.265625 -0.640625q-0.578125 -0.125 -2.25 -0.125l-1.234375 0z" fill-rule="nonzero"></path><path fill="#000000" fill-opacity="0.0" d="m618.59845 317.1496l0 35.590546" fill-rule="nonzero"></path><path stroke="#000000" stroke-width="1.0" stroke-linejoin="round" stroke-linecap="butt" d="m618.59845 317.1496l0 29.590546" fill-rule="evenodd"></path><path fill="#000000" stroke="#000000" stroke-width="1.0" stroke-linecap="butt" d="m616.9467 346.74014l1.6517334 4.5381165l1.6517334 -4.5381165z" fill-rule="evenodd"></path><path fill="#000000" fill-opacity="0.0" d="m596.7402 295.29135l-44.125977 -0.50393677" fill-rule="nonzero"></path><path stroke="#000000" stroke-width="1.0" stroke-linejoin="round" stroke-linecap="butt" d="m596.7402 295.29135l-38.126404 -0.43545532" fill-rule="evenodd"></path><path fill="#000000" stroke="#000000" stroke-width="1.0" stroke-linecap="butt" d="m558.6326 293.20428l-4.5566406 1.599823l4.518921 1.7034302z" fill-rule="evenodd"></path><path fill="#000000" fill-opacity="0.0" d="m530.7559 272.92642l0 -44.976364" fill-rule="nonzero"></path><path stroke="#000000" stroke-width="1.0" stroke-linejoin="round" stroke-linecap="butt" d="m530.7559 272.92642l0 -38.97638" fill-rule="evenodd"></path><path fill="#000000" stroke="#000000" stroke-width="1.0" stroke-linecap="butt" d="m532.40765 233.95004l-1.6517334 -4.538086l-1.6517334 4.538086z" fill-rule="evenodd"></path><path fill="#000000" fill-opacity="0.0" d="m530.7559 316.64297l65.98425 57.95276" fill-rule="nonzero"></path><path stroke="#000000" stroke-width="1.0" stroke-linejoin="round" stroke-linecap="butt" d="m530.7559 316.64297l61.476135 53.993347" fill-rule="evenodd"></path><path fill="#000000" stroke="#000000" stroke-width="1.0" stroke-linecap="butt" d="m591.142 371.87735l4.499695 1.7536621l-2.3197021 -4.235718z" fill-rule="evenodd"></path><path fill="#000000" fill-opacity="0.0" d="m682.4409 204.4685l-41.984253 1.0078735" fill-rule="nonzero"></path><path stroke="#000000" stroke-width="1.0" stroke-linejoin="round" stroke-linecap="butt" d="m682.4409 204.4685l-35.985962 0.8638916" fill-rule="evenodd"></path><path fill="#000000" stroke="#000000" stroke-width="1.0" stroke-linecap="butt" d="m646.41534 203.68112l-4.4971924 1.7601776l4.576477 1.5423431z" fill-rule="evenodd"></path><path fill="#000000" fill-opacity="0.0" d="m596.73883 205.47076l-44.125977 0.6299286" fill-rule="nonzero"></path><path stroke="#000000" stroke-width="1.0" stroke-linejoin="round" stroke-linecap="butt" d="m596.73883 205.47076l-38.126587 0.54426575" fill-rule="evenodd"></path><path fill="#000000" stroke="#000000" stroke-width="1.0" stroke-linecap="butt" d="m558.5887 204.36348l-4.514099 1.7163391l4.5612183 1.5867767z" fill-rule="evenodd"></path><path fill="#000000" fill-opacity="0.0" d="m618.5971 227.32903l0 46.110245" fill-rule="nonzero"></path><path stroke="#000000" stroke-width="1.0" stroke-linejoin="round" stroke-linecap="butt" d="m618.5971 227.32903l0 40.110245" fill-rule="evenodd"></path><path fill="#000000" stroke="#000000" stroke-width="1.0" stroke-linecap="butt" d="m616.9454 267.43927l1.6517334 4.538086l1.6517334 -4.538086z" fill-rule="evenodd"></path><path fill="#000000" fill-opacity="0.0" d="m546.21204 221.55849l56.944885 58.267715" fill-rule="nonzero"></path><path stroke="#000000" stroke-width="1.0" stroke-linejoin="round" stroke-linecap="butt" d="m546.21204 221.5585l52.75122 53.976654" fill-rule="evenodd"></path><path fill="#000000" stroke="#000000" stroke-width="1.0" stroke-linecap="butt" d="m597.782 276.6896l4.3531494 2.091095l-1.9906006 -4.4000244z" fill-rule="evenodd"></path><path fill="#000000" fill-opacity="0.0" d="m18.24147 543.79395l0 0c0 -12.07196 9.78628 -21.858276 21.858269 -21.858276l0 0c5.7971725 0 11.356907 2.3029175 15.456127 6.4021606c4.0992203 4.099243 6.4021378 9.658936 6.4021378 15.456116l0 0c0 12.0720215 -9.786278 21.858276 -21.858265 21.858276l0 0c-12.071989 0 -21.858269 -9.786255 -21.858269 -21.858276z" fill-rule="nonzero"></path><path stroke="#000000" stroke-width="2.0" stroke-linejoin="round" stroke-linecap="butt" d="m18.24147 543.79395l0 0c0 -12.07196 9.78628 -21.858276 21.858269 -21.858276l0 0c5.7971725 0 11.356907 2.3029175 15.456127 6.4021606c4.0992203 4.099243 6.4021378 9.658936 6.4021378 15.456116l0 0c0 12.0720215 -9.786278 21.858276 -21.858265 21.858276l0 0c-12.071989 0 -21.858269 -9.786255 -21.858269 -21.858276z" fill-rule="nonzero"></path><path fill="#000000" d="m40.721733 550.714l-1.671875 0l0 -10.640625q-0.59375 0.578125 -1.578125 1.15625q-0.984375 0.5625 -1.765625 0.859375l0 -1.625q1.40625 -0.65625 2.453125 -1.59375q1.046875 -0.9375 1.484375 -1.8125l1.078125 0l0 13.65625z" fill-rule="nonzero"></path><path fill="#000000" fill-opacity="0.0" d="m88.22908 544.1116l0 0c0 -12.0720215 9.786285 -21.858276 21.858269 -21.858276l0 0c5.7971725 0 11.356911 2.3029175 15.456131 6.4020996c4.0992203 4.099243 6.4021378 9.658997 6.4021378 15.456177l0 0c0 12.07196 -9.786278 21.858215 -21.858269 21.858215l0 0c-12.071983 0 -21.858269 -9.786255 -21.858269 -21.858215z" fill-rule="nonzero"></path><path stroke="#000000" stroke-width="2.0" stroke-linejoin="round" stroke-linecap="butt" d="m88.22908 544.1116l0 0c0 -12.0720215 9.786285 -21.858276 21.858269 -21.858276l0 0c5.7971725 0 11.356911 2.3029175 15.456131 6.4020996c4.0992203 4.099243 6.4021378 9.658997 6.4021378 15.456177l0 0c0 12.07196 -9.786278 21.858215 -21.858269 21.858215l0 0c-12.071983 0 -21.858269 -9.786255 -21.858269 -21.858215z" fill-rule="nonzero"></path><path fill="#000000" d="m113.193726 549.4222l0 1.609375l-8.984375 0q-0.015625 -0.609375 0.1875 -1.15625q0.34375 -0.921875 1.09375 -1.8125q0.765625 -0.890625 2.1875 -2.0625q2.21875 -1.8125 3.0 -2.875q0.78125 -1.0625 0.78125 -2.015625q0 -0.984375 -0.71875 -1.671875q-0.703125 -0.6875 -1.84375 -0.6875q-1.203125 0 -1.9375 0.734375q-0.71875 0.71875 -0.71875 2.0l-1.71875 -0.171875q0.171875 -1.921875 1.328125 -2.921875q1.15625 -1.015625 3.09375 -1.015625q1.953125 0 3.09375 1.09375q1.140625 1.078125 1.140625 2.6875q0 0.8125 -0.34375 1.609375q-0.328125 0.78125 -1.109375 1.65625q-0.765625 0.859375 -2.5625 2.390625q-1.5 1.265625 -1.9375 1.71875q-0.421875 0.4375 -0.703125 0.890625l6.671875 0z" fill-rule="nonzero"></path><path fill="#000000" fill-opacity="0.0" d="m88.22835 612.99603l0 0c0 -12.07196 9.786278 -21.858215 21.858269 -21.858215l0 0c5.7971725 0 11.356903 2.3029175 15.456123 6.4020996c4.099228 4.099243 6.4021454 9.658997 6.4021454 15.456116l0 0c0 12.0720215 -9.786285 21.858276 -21.858269 21.858276l0 0c-12.071991 0 -21.858269 -9.786255 -21.858269 -21.858276z" fill-rule="nonzero"></path><path stroke="#000000" stroke-width="2.0" stroke-linejoin="round" stroke-linecap="butt" d="m88.22835 612.99603l0 0c0 -12.07196 9.786278 -21.858215 21.858269 -21.858215l0 0c5.7971725 0 11.356903 2.3029175 15.456123 6.4020996c4.099228 4.099243 6.4021454 9.658997 6.4021454 15.456116l0 0c0 12.0720215 -9.786285 21.858276 -21.858269 21.858276l0 0c-12.071991 0 -21.858269 -9.786255 -21.858269 -21.858276z" fill-rule="nonzero"></path><path fill="#000000" d="m104.42736 616.3223l1.671875 -0.21875q0.28125 1.421875 0.96875 2.046875q0.703125 0.625 1.6875 0.625q1.1875 0 2.0 -0.8125q0.8125 -0.828125 0.8125 -2.03125q0 -1.140625 -0.765625 -1.890625q-0.75 -0.75 -1.90625 -0.75q-0.46875 0 -1.171875 0.1875l0.1875 -1.46875q0.15625 0.015625 0.265625 0.015625q1.0625 0 1.90625 -0.546875q0.859375 -0.5625 0.859375 -1.71875q0 -0.921875 -0.625 -1.515625q-0.609375 -0.609375 -1.59375 -0.609375q-0.96875 0 -1.625 0.609375q-0.640625 0.609375 -0.828125 1.84375l-1.671875 -0.296875q0.296875 -1.6875 1.375 -2.609375q1.09375 -0.921875 2.71875 -0.921875q1.109375 0 2.046875 0.484375q0.9375 0.46875 1.421875 1.296875q0.5 0.828125 0.5 1.75q0 0.890625 -0.46875 1.609375q-0.46875 0.71875 -1.40625 1.15625q1.21875 0.265625 1.875 1.15625q0.671875 0.875 0.671875 2.1875q0 1.78125 -1.296875 3.015625q-1.296875 1.234375 -3.28125 1.234375q-1.796875 0 -2.984375 -1.0625q-1.171875 -1.0625 -1.34375 -2.765625z" fill-rule="nonzero"></path><path fill="#000000" fill-opacity="0.0" d="m158.21596 544.1116l0 0c0 -12.0720215 9.786285 -21.858276 21.858276 -21.858276l0 0c5.797165 0 11.356903 2.3029175 15.456131 6.4020996c4.0992126 4.099243 6.40213 9.658997 6.40213 15.456177l0 0c0 12.07196 -9.786285 21.858215 -21.858261 21.858215l0 0c-12.071991 0 -21.858276 -9.786255 -21.858276 -21.858215z" fill-rule="nonzero"></path><path stroke="#000000" stroke-width="2.0" stroke-linejoin="round" stroke-linecap="butt" d="m158.21596 544.1116l0 0c0 -12.0720215 9.786285 -21.858276 21.858276 -21.858276l0 0c5.797165 0 11.356903 2.3029175 15.456131 6.4020996c4.0992126 4.099243 6.40213 9.658997 6.40213 15.456177l0 0c0 12.07196 -9.786285 21.858215 -21.858261 21.858215l0 0c-12.071991 0 -21.858276 -9.786255 -21.858276 -21.858215z" fill-rule="nonzero"></path><path fill="#000000" d="m179.75873 551.03156l0 -3.25l-5.90625 0l0 -1.53125l6.21875 -8.8125l1.359375 0l0 8.8125l1.84375 0l0 1.53125l-1.84375 0l0 3.25l-1.671875 0zm0 -4.78125l0 -6.140625l-4.25 6.140625l4.25 0z" fill-rule="nonzero"></path><path fill="#000000" fill-opacity="0.0" d="m119.81365 475.22702l0 0c0 -12.07196 9.786278 -21.858246 21.858269 -21.858246l0 0c5.797165 0 11.356903 2.3029175 15.456131 6.40213c4.0992126 4.0992126 6.40213 9.658966 6.40213 15.456116l0 0c0 12.071991 -9.786285 21.858276 -21.858261 21.858276l0 0c-12.071991 0 -21.858269 -9.786285 -21.858269 -21.858276z" fill-rule="nonzero"></path><path stroke="#000000" stroke-width="2.0" stroke-linejoin="round" stroke-linecap="butt" d="m119.81365 475.22702l0 0c0 -12.07196 9.786278 -21.858246 21.858269 -21.858246l0 0c5.797165 0 11.356903 2.3029175 15.456131 6.40213c4.0992126 4.0992126 6.40213 9.658966 6.40213 15.456116l0 0c0 12.071991 -9.786285 21.858276 -21.858261 21.858276l0 0c-12.071991 0 -21.858269 -9.786285 -21.858269 -21.858276z" fill-rule="nonzero"></path><path fill="#000000" d="m135.99704 478.58453l1.765625 -0.15625q0.1875 1.28125 0.890625 1.9375q0.71875 0.640625 1.71875 0.640625q1.203125 0 2.03125 -0.90625q0.84375 -0.90625 0.84375 -2.421875q0 -1.421875 -0.8125 -2.25q-0.796875 -0.828125 -2.09375 -0.828125q-0.796875 0 -1.453125 0.375q-0.640625 0.359375 -1.015625 0.953125l-1.578125 -0.203125l1.328125 -7.0l6.765625 0l0 1.609375l-5.4375 0l-0.734375 3.640625q1.234375 -0.84375 2.578125 -0.84375q1.78125 0 3.0 1.234375q1.234375 1.234375 1.234375 3.171875q0 1.84375 -1.078125 3.1875q-1.3125 1.65625 -3.578125 1.65625q-1.859375 0 -3.03125 -1.03125q-1.171875 -1.046875 -1.34375 -2.765625z" fill-rule="nonzero"></path><path fill="#000000" fill-opacity="0.0" d="m228.2021 544.1116l0 0c0 -12.0720215 9.78627 -21.858276 21.858261 -21.858276l0 0c5.79718 0 11.356903 2.3029175 15.456146 6.4020996c4.0992126 4.099243 6.40213 9.658997 6.40213 15.456177l0 0c0 12.07196 -9.786285 21.858215 -21.858276 21.858215l0 0c-12.071991 0 -21.858261 -9.786255 -21.858261 -21.858215z" fill-rule="nonzero"></path><path stroke="#000000" stroke-width="2.0" stroke-linejoin="round" stroke-linecap="butt" d="m228.2021 544.1116l0 0c0 -12.0720215 9.78627 -21.858276 21.858261 -21.858276l0 0c5.79718 0 11.356903 2.3029175 15.456146 6.4020996c4.0992126 4.099243 6.40213 9.658997 6.40213 15.456177l0 0c0 12.07196 -9.786285 21.858215 -21.858276 21.858215l0 0c-12.071991 0 -21.858261 -9.786255 -21.858261 -21.858215z" fill-rule="nonzero"></path><path fill="#000000" d="m253.05736 540.7659l-1.65625 0.125q-0.21875 -0.984375 -0.640625 -1.421875q-0.671875 -0.71875 -1.65625 -0.71875q-0.8125 0 -1.40625 0.4375q-0.796875 0.578125 -1.25 1.6875q-0.453125 1.09375 -0.46875 3.140625q0.609375 -0.921875 1.46875 -1.359375q0.875 -0.453125 1.828125 -0.453125q1.671875 0 2.84375 1.234375q1.171875 1.234375 1.171875 3.171875q0 1.28125 -0.546875 2.390625q-0.546875 1.09375 -1.515625 1.6875q-0.96875 0.578125 -2.1875 0.578125q-2.09375 0 -3.40625 -1.53125q-1.3125 -1.546875 -1.3125 -5.0625q0 -3.953125 1.453125 -5.734375q1.265625 -1.5625 3.421875 -1.5625q1.609375 0 2.625 0.90625q1.03125 0.890625 1.234375 2.484375zm-6.8125 5.859375q0 0.859375 0.359375 1.65625q0.375 0.78125 1.03125 1.203125q0.65625 0.40625 1.375 0.40625q1.0625 0 1.8125 -0.84375q0.765625 -0.859375 0.765625 -2.328125q0 -1.40625 -0.75 -2.21875q-0.75 -0.8125 -1.890625 -0.8125q-1.125 0 -1.921875 0.8125q-0.78125 0.8125 -0.78125 2.125z" fill-rule="nonzero"></path><path fill="#000000" fill-opacity="0.0" d="m606.06696 508.83597l104.15747 0l0 36.944855l-104.15747 0z" fill-rule="nonzero"></path><path fill="#000000" d="m616.44196 535.756l0 -13.59375l10.09375 0l0 2.296875l-7.34375 0l0 3.015625l6.828125 0l0 2.28125l-6.828125 0l0 3.703125l7.609375 0l0 2.296875l-10.359375 0z" fill-rule="nonzero"></path><path fill="#000000" fill-opacity="0.0" d="m624.03204 474.80127l-33.88977 21.826782" fill-rule="nonzero"></path><path stroke="#000000" stroke-width="1.0" stroke-linejoin="round" stroke-linecap="butt" d="m624.03204 474.80127l-28.845398 18.577942" fill-rule="evenodd"></path><path fill="#000000" stroke="#000000" stroke-width="1.0" stroke-linecap="butt" d="m594.2923 491.99057l-2.9209595 3.8458862l4.709656 -1.068573z" fill-rule="evenodd"></path><path fill="#000000" fill-opacity="0.0" d="m654.9533 474.7906l33.88977 21.826782" fill-rule="nonzero"></path><path stroke="#000000" stroke-width="1.0" stroke-linejoin="round" stroke-linecap="butt" d="m654.9533 474.7906l28.845459 18.577972" fill-rule="evenodd"></path><path fill="#000000" stroke="#000000" stroke-width="1.0" stroke-linecap="butt" d="m682.9044 494.7572l4.7095947 1.0686035l-2.9208984 -3.8458862z" fill-rule="evenodd"></path><path fill="#000000" fill-opacity="0.0" d="m688.8431 527.5296l-27.40155 30.48822" fill-rule="nonzero"></path><path stroke="#000000" stroke-width="1.0" stroke-linejoin="round" stroke-linecap="butt" d="m688.8431 527.5296l-23.390808 26.025696" fill-rule="evenodd"></path><path fill="#000000" stroke="#000000" stroke-width="1.0" stroke-linecap="butt" d="m664.22375 552.4512l-1.8049927 4.479309l4.261963 -2.2711182z" fill-rule="evenodd"></path><path fill="#000000" fill-opacity="0.0" d="m719.7554 527.5296l28.251953 30.48822" fill-rule="nonzero"></path><path stroke="#000000" stroke-width="1.0" stroke-linejoin="round" stroke-linecap="butt" d="m719.7553 527.5296l24.173828 26.08722" fill-rule="evenodd"></path><path fill="#000000" stroke="#000000" stroke-width="1.0" stroke-linecap="butt" d="m742.7176 554.7395l4.2960815 2.2059937l-1.8729858 -4.451355z" fill-rule="evenodd"></path><path fill="#000000" fill-opacity="0.0" d="m559.221 527.5296l-24.031494 30.48822" fill-rule="nonzero"></path><path stroke="#000000" stroke-width="1.0" stroke-linejoin="round" stroke-linecap="butt" d="m559.22107 527.5296l-20.31726 25.776062" fill-rule="evenodd"></path><path fill="#000000" stroke="#000000" stroke-width="1.0" stroke-linecap="butt" d="m537.60657 552.28314l-1.5120239 4.586548l4.1064453 -2.541565z" fill-rule="evenodd"></path><path fill="#000000" fill-opacity="0.0" d="m126.21579 490.68317l-86.110245 31.24408" fill-rule="nonzero"></path><path stroke="#000000" stroke-width="1.0" stroke-linejoin="round" stroke-linecap="butt" d="m126.21579 490.68317l-80.47003 29.197632" fill-rule="evenodd"></path><path fill="#000000" stroke="#000000" stroke-width="1.0" stroke-linecap="butt" d="m45.18238 518.32806l-3.702591 3.100586l4.829338 0.0048217773z" fill-rule="evenodd"></path><path fill="#000000" fill-opacity="0.0" d="m126.21579 490.68317l-16.125984 31.559082" fill-rule="nonzero"></path><path stroke="#000000" stroke-width="1.0" stroke-linejoin="round" stroke-linecap="butt" d="m126.21579 490.68317l-13.395889 26.216125" fill-rule="evenodd"></path><path fill="#000000" stroke="#000000" stroke-width="1.0" stroke-linecap="butt" d="m111.34907 516.14777l-0.59407806 4.7926636l3.5357513 -3.2895508z" fill-rule="evenodd"></path><path fill="#000000" fill-opacity="0.0" d="m157.12805 490.68317l22.960617 31.559082" fill-rule="nonzero"></path><path stroke="#000000" stroke-width="1.0" stroke-linejoin="round" stroke-linecap="butt" d="m157.12805 490.68317l19.43074 26.707275" fill-rule="evenodd"></path><path fill="#000000" stroke="#000000" stroke-width="1.0" stroke-linecap="butt" d="m175.22314 518.3622l4.005478 2.697876l-1.3341827 -4.6413574z" fill-rule="evenodd"></path><path fill="#000000" fill-opacity="0.0" d="m157.12805 490.68317l92.94487 31.559082" fill-rule="nonzero"></path><path stroke="#000000" stroke-width="1.0" stroke-linejoin="round" stroke-linecap="butt" d="m157.12805 490.68317l87.26346 29.629944" fill-rule="evenodd"></path><path fill="#000000" stroke="#000000" stroke-width="1.0" stroke-linecap="butt" d="m243.86046 521.87714l4.8282013 -0.10498047l-3.7660828 -3.0230713z" fill-rule="evenodd"></path><path fill="#000000" fill-opacity="0.0" d="m110.08735 565.9698l0 25.165405" fill-rule="nonzero"></path><path stroke="#000000" stroke-width="1.0" stroke-linejoin="round" stroke-linecap="butt" d="m110.08735 565.9698l0 19.165405" fill-rule="evenodd"></path><path fill="#000000" stroke="#000000" stroke-width="1.0" stroke-linecap="butt" d="m108.43562 585.1352l1.6517258 4.538086l1.6517334 -4.538086z" fill-rule="evenodd"></path><path fill="#000000" fill-opacity="0.0" d="m151.521 586.76117l104.157486 0l0 36.944885l-104.157486 0z" fill-rule="nonzero"></path><path fill="#000000" d="m161.92725 613.68115l0 -13.59375l9.3125 0l0 2.296875l-6.578125 0l0 3.21875l5.6875 0l0 2.296875l-5.6875 0l0 5.78125l-2.734375 0z" fill-rule="nonzero"></path><path fill="#000000" fill-opacity="0.0" d="m541.8898 822.3114l0 0c0 -12.0720215 9.786255 -21.858276 21.858276 -21.858276l0 0c5.79718 0 11.356873 2.3029175 15.456116 6.4021606c4.099243 4.099182 6.4021606 9.658936 6.4021606 15.456116l0 0c0 12.07196 -9.786316 21.858276 -21.858276 21.858276l0 0c-12.0720215 0 -21.858276 -9.786316 -21.858276 -21.858276z" fill-rule="nonzero"></path><path stroke="#000000" stroke-width="2.0" stroke-linejoin="round" stroke-linecap="butt" d="m541.8898 822.3114l0 0c0 -12.0720215 9.786255 -21.858276 21.858276 -21.858276l0 0c5.79718 0 11.356873 2.3029175 15.456116 6.4021606c4.099243 4.099182 6.4021606 9.658936 6.4021606 15.456116l0 0c0 12.07196 -9.786316 21.858276 -21.858276 21.858276l0 0c-12.0720215 0 -21.858276 -9.786316 -21.858276 -21.858276z" fill-rule="nonzero"></path><path fill="#000000" d="m564.37006 829.2314l-1.671875 0l0 -10.640625q-0.59375 0.578125 -1.578125 1.15625q-0.984375 0.5625 -1.765625 0.859375l0 -1.625q1.40625 -0.65625 2.453125 -1.59375q1.046875 -0.9375 1.484375 -1.8125l1.078125 0l0 13.65625z" fill-rule="nonzero"></path><path fill="#000000" fill-opacity="0.0" d="m624.937 821.69293l0 0c0 -12.0720215 9.786255 -21.858276 21.858276 -21.858276l0 0c5.79718 0 11.356873 2.3029175 15.456116 6.4020996c4.099243 4.099243 6.4021606 9.658997 6.4021606 15.456177l0 0c0 12.07196 -9.786316 21.858276 -21.858276 21.858276l0 0c-12.0720215 0 -21.858276 -9.786316 -21.858276 -21.858276z" fill-rule="nonzero"></path><path stroke="#000000" stroke-width="2.0" stroke-linejoin="round" stroke-linecap="butt" d="m624.937 821.69293l0 0c0 -12.0720215 9.786255 -21.858276 21.858276 -21.858276l0 0c5.79718 0 11.356873 2.3029175 15.456116 6.4020996c4.099243 4.099243 6.4021606 9.658997 6.4021606 15.456177l0 0c0 12.07196 -9.786316 21.858276 -21.858276 21.858276l0 0c-12.0720215 0 -21.858276 -9.786316 -21.858276 -21.858276z" fill-rule="nonzero"></path><path fill="#000000" d="m649.9017 827.00354l0 1.609375l-8.984375 0q-0.015625 -0.609375 0.1875 -1.15625q0.34375 -0.921875 1.09375 -1.8125q0.765625 -0.890625 2.1875 -2.0625q2.21875 -1.8125 3.0 -2.875q0.78125 -1.0625 0.78125 -2.015625q0 -0.984375 -0.71875 -1.671875q-0.703125 -0.6875 -1.84375 -0.6875q-1.203125 0 -1.9375 0.734375q-0.71875 0.71875 -0.71875 2.0l-1.71875 -0.171875q0.171875 -1.921875 1.328125 -2.921875q1.15625 -1.015625 3.09375 -1.015625q1.953125 0 3.09375 1.09375q1.140625 1.078125 1.140625 2.6875q0 0.8125 -0.34375 1.609375q-0.328125 0.78125 -1.109375 1.65625q-0.765625 0.859375 -2.5625 2.390625q-1.5 1.265625 -1.9375 1.71875q-0.421875 0.4375 -0.703125 0.890625l6.671875 0z" fill-rule="nonzero"></path><path fill="#000000" fill-opacity="0.0" d="m585.22833 750.547l0 0c0 -12.0720215 9.786316 -21.858276 21.858276 -21.858276l0 0c5.79718 0 11.356934 2.3029175 15.456116 6.4020996c4.099243 4.099243 6.4021606 9.658997 6.4021606 15.456177l0 0c0 12.07196 -9.786255 21.858276 -21.858276 21.858276l0 0c-12.07196 0 -21.858276 -9.786316 -21.858276 -21.858276z" fill-rule="nonzero"></path><path stroke="#000000" stroke-width="2.0" stroke-linejoin="round" stroke-linecap="butt" d="m585.22833 750.547l0 0c0 -12.0720215 9.786316 -21.858276 21.858276 -21.858276l0 0c5.79718 0 11.356934 2.3029175 15.456116 6.4020996c4.099243 4.099243 6.4021606 9.658997 6.4021606 15.456177l0 0c0 12.07196 -9.786255 21.858276 -21.858276 21.858276l0 0c-12.07196 0 -21.858276 -9.786316 -21.858276 -21.858276z" fill-rule="nonzero"></path><path fill="#000000" d="m601.42737 753.8732l1.671875 -0.21875q0.28125 1.421875 0.96875 2.046875q0.703125 0.625 1.6875 0.625q1.1875 0 2.0 -0.8125q0.8125 -0.828125 0.8125 -2.03125q0 -1.140625 -0.765625 -1.890625q-0.75 -0.75 -1.90625 -0.75q-0.46875 0 -1.171875 0.1875l0.1875 -1.46875q0.15625 0.015625 0.265625 0.015625q1.0625 0 1.90625 -0.546875q0.859375 -0.5625 0.859375 -1.71875q0 -0.921875 -0.625 -1.515625q-0.609375 -0.609375 -1.59375 -0.609375q-0.96875 0 -1.625 0.609375q-0.640625 0.609375 -0.828125 1.84375l-1.671875 -0.296875q0.296875 -1.6875 1.375 -2.609375q1.09375 -0.921875 2.71875 -0.921875q1.109375 0 2.046875 0.484375q0.9375 0.46875 1.421875 1.296875q0.5 0.828125 0.5 1.75q0 0.890625 -0.46875 1.609375q-0.46875 0.71875 -1.40625 1.15625q1.21875 0.265625 1.875 1.15625q0.671875 0.875 0.671875 2.1875q0 1.78125 -1.296875 3.015625q-1.296875 1.234375 -3.28125 1.234375q-1.796875 0 -2.984375 -1.0625q-1.171875 -1.0625 -1.34375 -2.765625z" fill-rule="nonzero"></path><path fill="#000000" fill-opacity="0.0" d="m664.6247 684.96326l0 0c0 -12.07196 9.786255 -21.858276 21.858215 -21.858276l0 0c5.79718 0 11.356934 2.3029175 15.456177 6.4021606c4.099182 4.099182 6.4020996 9.658936 6.4020996 15.456116l0 0c0 12.07196 -9.786255 21.858276 -21.858276 21.858276l0 0c-12.07196 0 -21.858215 -9.786316 -21.858215 -21.858276z" fill-rule="nonzero"></path><path stroke="#000000" stroke-width="2.0" stroke-linejoin="round" stroke-linecap="butt" d="m664.6247 684.96326l0 0c0 -12.07196 9.786255 -21.858276 21.858215 -21.858276l0 0c5.79718 0 11.356934 2.3029175 15.456177 6.4021606c4.099182 4.099182 6.4020996 9.658936 6.4020996 15.456116l0 0c0 12.07196 -9.786255 21.858276 -21.858276 21.858276l0 0c-12.07196 0 -21.858215 -9.786316 -21.858215 -21.858276z" fill-rule="nonzero"></path><path fill="#000000" d="m686.1674 691.88324l0 -3.25l-5.90625 0l0 -1.53125l6.21875 -8.8125l1.359375 0l0 8.8125l1.84375 0l0 1.53125l-1.84375 0l0 3.25l-1.671875 0zm0 -4.78125l0 -6.140625l-4.25 6.140625l4.25 0z" fill-rule="nonzero"></path><path fill="#000000" fill-opacity="0.0" d="m707.98425 821.69293l0 0c0 -12.0720215 9.786255 -21.858276 21.858276 -21.858276l0 0c5.79718 0 11.356873 2.3029175 15.456116 6.4020996c4.099243 4.099243 6.4021606 9.658997 6.4021606 15.456177l0 0c0 12.07196 -9.786316 21.858276 -21.858276 21.858276l0 0c-12.0720215 0 -21.858276 -9.786316 -21.858276 -21.858276z" fill-rule="nonzero"></path><path stroke="#000000" stroke-width="2.0" stroke-linejoin="round" stroke-linecap="butt" d="m707.98425 821.69293l0 0c0 -12.0720215 9.786255 -21.858276 21.858276 -21.858276l0 0c5.79718 0 11.356873 2.3029175 15.456116 6.4020996c4.099243 4.099243 6.4021606 9.658997 6.4021606 15.456177l0 0c0 12.07196 -9.786316 21.858276 -21.858276 21.858276l0 0c-12.0720215 0 -21.858276 -9.786316 -21.858276 -21.858276z" fill-rule="nonzero"></path><path fill="#000000" d="m724.16766 825.0504l1.765625 -0.15625q0.1875 1.28125 0.890625 1.9375q0.71875 0.640625 1.71875 0.640625q1.203125 0 2.03125 -0.90625q0.84375 -0.90625 0.84375 -2.421875q0 -1.421875 -0.8125 -2.25q-0.796875 -0.828125 -2.09375 -0.828125q-0.796875 0 -1.453125 0.375q-0.640625 0.359375 -1.015625 0.953125l-1.578125 -0.203125l1.328125 -7.0l6.765625 0l0 1.609375l-5.4375 0l-0.734375 3.640625q1.234375 -0.84375 2.578125 -0.84375q1.78125 0 3.0 1.234375q1.234375 1.234375 1.234375 3.171875q0 1.84375 -1.078125 3.1875q-1.3125 1.65625 -3.578125 1.65625q-1.859375 0 -3.03125 -1.03125q-1.171875 -1.046875 -1.34375 -2.765625z" fill-rule="nonzero"></path><path fill="#000000" fill-opacity="0.0" d="m738.7507 750.547l0 0c0 -12.0720215 9.786255 -21.858276 21.858276 -21.858276l0 0c5.797119 0 11.356873 2.3029175 15.456116 6.4020996c4.099182 4.099243 6.4020996 9.658997 6.4020996 15.456177l0 0c0 12.07196 -9.786255 21.858276 -21.858215 21.858276l0 0c-12.0720215 0 -21.858276 -9.786316 -21.858276 -21.858276z" fill-rule="nonzero"></path><path stroke="#000000" stroke-width="2.0" stroke-linejoin="round" stroke-linecap="butt" d="m738.7507 750.547l0 0c0 -12.0720215 9.786255 -21.858276 21.858276 -21.858276l0 0c5.797119 0 11.356873 2.3029175 15.456116 6.4020996c4.099182 4.099243 6.4020996 9.658997 6.4020996 15.456177l0 0c0 12.07196 -9.786255 21.858276 -21.858215 21.858276l0 0c-12.0720215 0 -21.858276 -9.786316 -21.858276 -21.858276z" fill-rule="nonzero"></path><path fill="#000000" d="m763.6059 747.20135l-1.65625 0.125q-0.21875 -0.984375 -0.640625 -1.421875q-0.671875 -0.71875 -1.65625 -0.71875q-0.8125 0 -1.40625 0.4375q-0.796875 0.578125 -1.25 1.6875q-0.453125 1.09375 -0.46875 3.140625q0.609375 -0.921875 1.46875 -1.359375q0.875 -0.453125 1.828125 -0.453125q1.671875 0 2.84375 1.234375q1.171875 1.234375 1.171875 3.171875q0 1.28125 -0.546875 2.390625q-0.546875 1.09375 -1.515625 1.6875q-0.96875 0.578125 -2.1875 0.578125q-2.09375 0 -3.40625 -1.53125q-1.3125 -1.546875 -1.3125 -5.0625q0 -3.953125 1.453125 -5.734375q1.265625 -1.5625 3.421875 -1.5625q1.609375 0 2.625 0.90625q1.03125 0.890625 1.234375 2.484375zm-6.8125 5.859375q0 0.859375 0.359375 1.65625q0.375 0.78125 1.03125 1.203125q0.65625 0.40625 1.375 0.40625q1.0625 0 1.8125 -0.84375q0.765625 -0.859375 0.765625 -2.328125q0 -1.40625 -0.75 -2.21875q-0.75 -0.8125 -1.890625 -0.8125q-1.125 0 -1.921875 0.8125q-0.78125 0.8125 -0.78125 2.125z" fill-rule="nonzero"></path><path fill="#000000" fill-opacity="0.0" d="m142.4672 725.8445l34.67717 -0.22045898" fill-rule="nonzero"></path><path stroke="#000000" stroke-width="1.0" stroke-linejoin="round" stroke-linecap="butt" d="m142.4672 725.8445l28.677292 -0.18231201" fill-rule="evenodd"></path><path fill="#000000" stroke="#000000" stroke-width="1.0" stroke-linecap="butt" d="m171.15498 727.31384l4.5274963 -1.680542l-4.5485077 -1.6228638z" fill-rule="evenodd"></path><path fill="#000000" fill-opacity="0.0" d="m220.86351 725.6116l34.67717 0" fill-rule="nonzero"></path><path stroke="#000000" stroke-width="1.0" stroke-linejoin="round" stroke-linecap="butt" d="m220.86351 725.6116l28.67717 0" fill-rule="evenodd"></path><path fill="#000000" stroke="#000000" stroke-width="1.0" stroke-linecap="butt" d="m249.54068 727.2633l4.538101 -1.6517334l-4.538101 -1.6517334z" fill-rule="evenodd"></path><path fill="#000000" fill-opacity="0.0" d="m299.25986 725.6116l34.677155 0" fill-rule="nonzero"></path><path stroke="#000000" stroke-width="1.0" stroke-linejoin="round" stroke-linecap="butt" d="m299.25986 725.6116l28.677155 0" fill-rule="evenodd"></path><path fill="#000000" stroke="#000000" stroke-width="1.0" stroke-linecap="butt" d="m327.937 727.2633l4.538086 -1.6517334l-4.538086 -1.6517334z" fill-rule="evenodd"></path><path fill="#000000" fill-opacity="0.0" d="m377.65485 725.6116l34.677185 0" fill-rule="nonzero"></path><path stroke="#000000" stroke-width="1.0" stroke-linejoin="round" stroke-linecap="butt" d="m377.65485 725.6116l28.677185 0" fill-rule="evenodd"></path><path fill="#000000" stroke="#000000" stroke-width="1.0" stroke-linecap="butt" d="m406.33203 727.2633l4.538086 -1.6517334l-4.538086 -1.6517334z" fill-rule="evenodd"></path><path fill="#000000" fill-opacity="0.0" d="m64.07087 725.6116l34.677162 0.22045898" fill-rule="nonzero"></path><path stroke="#000000" stroke-width="1.0" stroke-linejoin="round" stroke-linecap="butt" d="m64.07087 725.6116l28.677284 0.18231201" fill-rule="evenodd"></path><path fill="#000000" stroke="#000000" stroke-width="1.0" stroke-linecap="butt" d="m92.73765 727.44556l4.5485077 -1.6228027l-4.527504 -1.680603z" fill-rule="evenodd"></path><path fill="#000000" fill-opacity="0.0" d="m50.132545 760.82153l104.15748 0l0 36.944885l-104.15748 0z" fill-rule="nonzero"></path><path fill="#000000" d="m66.83567 782.7415l0 -2.296875l5.921875 0l0 5.421875q-0.859375 0.828125 -2.5 1.46875q-1.640625 0.640625 -3.3125 0.640625q-2.140625 0 -3.734375 -0.890625q-1.578125 -0.90625 -2.375 -2.5625q-0.796875 -1.671875 -0.796875 -3.625q0 -2.125 0.890625 -3.78125q0.890625 -1.65625 2.609375 -2.53125q1.3125 -0.671875 3.25 -0.671875q2.546875 0 3.96875 1.0625q1.421875 1.0625 1.828125 2.9375l-2.734375 0.5q-0.28125 -1.0 -1.078125 -1.578125q-0.796875 -0.578125 -1.984375 -0.578125q-1.796875 0 -2.859375 1.140625q-1.0625 1.140625 -1.0625 3.390625q0 2.421875 1.078125 3.640625q1.078125 1.203125 2.828125 1.203125q0.859375 0 1.71875 -0.34375q0.875 -0.34375 1.5 -0.828125l0 -1.71875l-3.15625 0z" fill-rule="nonzero"></path><path fill="#000000" fill-opacity="0.0" d="m664.62335 734.85565l104.15747 0l0 36.944885l-104.15747 0z" fill-rule="nonzero"></path><path fill="#000000" d="m675.014 761.77563l0 -13.59375l2.75 0l0 5.34375l5.375 0l0 -5.34375l2.75 0l0 13.59375l-2.75 0l0 -5.953125l-5.375 0l0 5.953125l-2.75 0z" fill-rule="nonzero"></path><path fill="#000000" fill-opacity="0.0" d="m671.0268 700.4194l-48.472412 34.677185" fill-rule="nonzero"></path><path stroke="#000000" stroke-width="1.0" stroke-linejoin="round" stroke-linecap="butt" d="m671.0268 700.4194l-43.59259 31.186096" fill-rule="evenodd"></path><path fill="#000000" stroke="#000000" stroke-width="1.0" stroke-linecap="butt" d="m626.47314 730.26215l-2.7297974 3.9838257l4.6519165 -1.2971191z" fill-rule="evenodd"></path><path fill="#000000" fill-opacity="0.0" d="m701.9391 700.4194l43.212585 34.677185" fill-rule="nonzero"></path><path stroke="#000000" stroke-width="1.0" stroke-linejoin="round" stroke-linecap="butt" d="m701.9391 700.4194l38.53302 30.921936" fill-rule="evenodd"></path><path fill="#000000" stroke="#000000" stroke-width="1.0" stroke-linecap="butt" d="m739.43835 732.6295l4.57312 1.552063l-2.5056152 -4.128479z" fill-rule="evenodd"></path><path fill="#000000" fill-opacity="0.0" d="m745.1528 766.0031l-15.307068 33.826782" fill-rule="nonzero"></path><path stroke="#000000" stroke-width="1.0" stroke-linejoin="round" stroke-linecap="butt" d="m745.15283 766.0031l-12.833496 28.360413" fill-rule="evenodd"></path><path fill="#000000" stroke="#000000" stroke-width="1.0" stroke-linecap="butt" d="m730.8145 793.68256l-0.36608887 4.8154297l3.3757324 -3.4534912z" fill-rule="evenodd"></path><path fill="#000000" fill-opacity="0.0" d="m622.5427 766.0031l24.252014 33.826782" fill-rule="nonzero"></path><path stroke="#000000" stroke-width="1.0" stroke-linejoin="round" stroke-linecap="butt" d="m622.5427 766.0031l20.755981 28.950562" fill-rule="evenodd"></path><path fill="#000000" stroke="#000000" stroke-width="1.0" stroke-linecap="butt" d="m641.9563 795.916l3.9865723 2.725769l-1.3018188 -4.6505737z" fill-rule="evenodd"></path><path fill="#000000" fill-opacity="0.0" d="m591.6305 766.0031l-27.874023 34.456665" fill-rule="nonzero"></path><path stroke="#000000" stroke-width="1.0" stroke-linejoin="round" stroke-linecap="butt" d="m591.6305 766.0031l-24.100403 29.791931" fill-rule="evenodd"></path><path fill="#000000" stroke="#000000" stroke-width="1.0" stroke-linecap="butt" d="m566.2459 794.7562l-1.5700073 4.5670166l4.1383057 -2.48938z" fill-rule="evenodd"></path><path fill="#000000" fill-opacity="0.0" d="m117.666664 894.61945l168.59845 168.59845" fill-rule="nonzero"></path><path stroke="#000000" stroke-width="1.0" stroke-linejoin="round" stroke-linecap="butt" d="m117.666664 894.61945l164.3558 164.35577" fill-rule="evenodd"></path><path fill="#000000" stroke="#000000" stroke-width="1.0" stroke-linecap="butt" d="m280.8545 1060.1432l4.376892 2.0408936l-2.040985 -4.376831z" fill-rule="evenodd"></path></g></svg>

